<svg width="72" height="72" viewBox="0 0 72 72" fill="none" xmlns="http://www.w3.org/2000/svg">
<path d="M64 -3.49691e-07C68.4183 -1.56562e-07 72 3.58172 72 8L72 72L-3.14722e-06 72L-3.49691e-07 8C-1.56562e-07 3.58172 3.58172 -2.99066e-06 8 -2.79753e-06L64 -3.49691e-07Z" fill="#00B6C4"/>
<path d="M52.2004 14.3999H19.8004C16.8181 14.3999 14.4004 16.8176 14.4004 19.7999V52.1999C14.4004 55.1822 16.8181 57.5999 19.8004 57.5999H52.2004C55.1827 57.5999 57.6004 55.1822 57.6004 52.1999V19.7999C57.6004 16.8176 55.1827 14.3999 52.2004 14.3999Z" stroke="white" stroke-width="3.6" stroke-linecap="round" stroke-linejoin="round"/>
<path d="M25.2004 34.2V46.8" stroke="white" stroke-width="3.6" stroke-linecap="round" stroke-linejoin="round"/>
<path d="M25.2004 27L25.2004 28.8" stroke="white" stroke-width="3.6" stroke-linecap="round" stroke-linejoin="round"/>
<path d="M36.0005 46.8V34.2" stroke="white" stroke-width="3.6" stroke-linecap="round" stroke-linejoin="round"/>
<path d="M46.8005 46.8V39.24C46.8005 37.9033 46.2316 36.6214 45.2189 35.6762C44.2062 34.731 42.8327 34.2 41.4005 34.2C39.9683 34.2 38.5948 34.731 37.5821 35.6762C36.5694 36.6214 36.0005 37.9033 36.0005 39.24" stroke="white" stroke-width="3.6" stroke-linecap="round" stroke-linejoin="round"/>
</svg>
