<svg width="1209" height="398" viewBox="0 0 1209 398" fill="none" xmlns="http://www.w3.org/2000/svg">
<path opacity="0.45" fill-rule="evenodd" clip-rule="evenodd" d="M-31.1838 393.416C-24.7962 395.816 -18.5703 397.016 -12.5129 397.016L-12.4658 396.996C-4.6228 396.996 2.91693 394.98 10.0793 390.948C48.8764 369.136 66.7723 294.273 72.6613 263.103C73.5031 258.638 74.3495 253.973 75.224 249.152C75.3995 248.185 75.576 247.212 75.754 246.233L75.7609 246.195C81.1302 216.536 87.5867 180.872 99.1848 149.068C101.687 154.418 104.152 159.922 106.636 165.466L106.647 165.491L106.662 165.525C121.508 198.668 136.856 232.932 164.842 238.061C165.781 238.233 166.716 238.382 167.646 238.509C169.974 239.837 172.409 240.941 174.963 241.79C177.322 242.574 179.639 243.209 181.917 243.712C182.942 244.348 183.987 244.94 185.056 245.485C189.072 247.532 192.921 249.027 196.704 250.144C202.236 254.049 207.372 257.145 212.453 259.583C216.967 263.835 221.593 267.821 226.744 271.236C230.585 276.126 234.602 280.689 239.277 284.588C242.404 289.692 245.9 294.5 250.134 298.582C252.817 303.816 255.963 308.669 259.912 312.785C262.121 317.623 264.781 322.1 268.122 325.99C268.408 326.323 268.694 326.647 268.981 326.964C270.66 330.899 272.664 334.583 275.102 337.918C275.976 339.113 276.861 340.227 277.755 341.265C279.008 344.307 280.461 347.187 282.157 349.852C288.538 359.878 296.253 365.791 305.1 367.423C323.427 370.808 343.135 356.129 362.197 341.93L362.22 341.912C373.868 333.241 384.869 325.051 394.081 322.349C414.982 316.207 436.105 328.188 446.852 335.882C453.954 340.965 460.685 346.858 467.194 352.563C475.104 359.501 483.284 366.661 492.293 372.541C516.859 388.574 539.997 392.499 561.053 384.219C621.257 360.552 650.048 245.026 665.512 182.961C666.792 177.81 667.971 173.07 669.056 168.862C670.376 163.725 671.737 158.209 673.159 152.417C674.626 146.446 676.158 140.208 677.793 133.812C684.982 148.003 692.678 162.205 702.132 174.998C721.072 200.64 747.391 223.389 778.217 240.785C831.898 271.066 896.75 286.29 947.251 296.182C970.307 300.697 993.473 304.122 1016.62 306.719C1018.39 307.036 1020.18 307.342 1021.99 307.639C1062.34 315.41 1108.18 315.201 1148.92 315.015L1149.3 315.013L1149.56 315.012C1155.97 314.979 1162.3 314.946 1168.49 314.946H1206.82C1207.37 314.946 1207.92 314.946 1208.47 314.946L1208.59 314.946V310.705H1174.46C1171.33 310.688 1168.2 310.668 1165.07 310.644C1161.19 310.606 1157.42 310.562 1153.72 310.512C1151.65 310.482 1149.61 310.449 1147.59 310.415C1137.77 310.243 1127.6 310.017 1117.16 309.689C1106.72 309.353 1095.79 308.91 1084.48 308.302C1074.36 307.752 1063.96 307.069 1053.38 306.214C1044.76 305.507 1036.07 304.682 1027.33 303.717C1024.39 303.368 1021.45 303 1018.51 302.612C1017.96 302.498 1017.41 302.381 1016.87 302.263C970.154 292.177 941.234 275.496 917.038 244.669C887.472 207.025 865.608 158.176 852.044 99.4886C845.064 69.2618 822.384 18.9424 788.539 4.20321C775.528 -1.46268 762.129 -1.39631 748.613 4.37756C742.765 4.70889 736.882 6.13115 731.007 8.63618C725.142 8.95976 719.23 10.3907 713.326 12.914C707.456 13.2421 701.539 14.6679 695.636 17.185C689.778 17.5131 683.875 18.9406 677.994 21.443C672.077 21.7734 666.119 23.207 660.187 25.7354C654.292 26.0765 648.37 27.5059 642.486 29.9971C636.543 30.347 630.561 31.7772 624.629 34.2723C618.682 34.642 612.708 36.0668 606.797 38.516L606.784 38.5213C601.189 38.8888 595.565 40.1609 589.992 42.3052C589.549 42.476 589.107 42.652 588.666 42.8331C564.627 44.5363 544.64 61.6321 533.434 78.0542C522.977 93.3729 515.606 113.897 507.803 135.621L507.803 135.622L507.637 136.084C490.029 185.12 471.867 235.699 415.372 232.829C394.565 231.791 374.379 224.077 354.845 216.613C328.891 206.695 302.033 196.439 273.081 201.429C268.521 202.215 264.035 203.409 259.612 204.881C258.168 198.158 256.587 191.467 254.828 184.836C250.347 167.919 225.787 82.8211 182.611 68.918C173.891 66.1103 164.992 66.3927 156.003 69.7424C152.031 69.9868 148.025 70.8477 143.994 72.3231C139.987 72.5449 135.938 73.3942 131.855 74.8694C127.841 75.0681 123.776 75.8952 119.669 77.3493C115.639 77.5228 111.546 78.3275 107.402 79.7621C103.342 79.9053 99.2088 80.6839 95.0147 82.0967C90.9654 82.2111 86.832 82.9495 82.629 84.3105C78.6458 84.3698 74.4745 85.0356 70.1014 86.3898C66.0762 86.4063 61.8441 87.0265 57.3866 88.3318C53.7869 88.308 50.0078 88.7497 46.0325 89.7119C45.5653 89.8261 45.102 89.9439 44.6419 90.0657C39.3646 89.9651 33.6689 90.815 27.4897 92.7731C-0.937622 101.788 -13.4162 136.08 -22.6808 161.554C-31.1302 184.795 -46.8633 228.048 -81.0313 228.5H-81.5502C-97.2091 228.5 -110.294 219.33 -124.134 209.614L-124.164 209.594C-136.404 201.017 -149.049 192.156 -163.814 189.994C-187.814 186.508 -201.829 210.208 -214.18 231.136C-218.532 238.52 -222.649 245.485 -226.813 250.528C-248.098 276.237 -275.299 297.193 -305.492 311.13C-318.505 317.138 -330.571 319.175 -343.086 319.821H-557.827V324.062L-358.201 324.05L-358.033 324.054C-354.838 324.159 -351.421 324.316 -348.115 324.493C-344.333 324.738 -340.389 325.054 -336.819 325.419C-334.288 325.701 -331.867 326.018 -329.742 326.361C-327.702 326.695 -325.683 327.043 -323.678 327.392C-320.218 328.129 -316.816 328.918 -313.453 329.705C-310.313 330.589 -307.217 331.51 -304.179 332.414L-304.176 332.415L-304.175 332.415L-304.174 332.415L-304.174 332.415L-304.036 332.456L-303.939 332.485L-303.864 332.507C-301.297 333.408 -298.759 334.327 -296.254 335.234C-295.502 335.507 -294.754 335.778 -294.009 336.047C-292.329 336.755 -290.662 337.467 -289.007 338.174L-288.943 338.201L-288.693 338.308C-287.395 338.862 -286.108 339.412 -284.828 339.955C-283.889 340.416 -282.955 340.877 -282.023 341.336C-279.77 342.447 -277.55 343.541 -275.347 344.606C-250.87 358.261 -227.739 371.121 -198.453 358.166C-188.664 353.832 -180.38 347.175 -172.368 340.737L-172.283 340.669L-172.276 340.664C-156.593 328.044 -141.784 316.127 -117.948 323.974C-101.204 329.496 -88.6448 342.476 -75.1218 357.619C-62.3871 371.88 -49.2212 386.612 -31.1838 393.416ZM-237.621 357.2C-225.864 360.278 -213.628 360.252 -200.144 354.282C-190.826 350.155 -182.74 343.649 -174.924 337.358L-174.914 337.35C-159.827 325.219 -144.246 312.69 -120.424 318.821C-122.892 317.8 -125.441 316.946 -128.095 316.281C-131.586 315.411 -134.968 314.933 -138.458 314.831C-154.933 314.353 -167.014 324.062 -179.762 334.358C-187.672 340.757 -195.859 347.364 -205.474 351.787C-217.238 357.173 -228.048 358.195 -237.621 357.2ZM-65.0625 362.417C-58.8741 366.868 -52.1469 370.723 -44.5181 373.451C-37.7881 375.871 -31.2669 377.078 -24.9545 377.078C1.65228 377.077 24.5195 355.622 43.2031 313.018C52.1241 292.797 57.8985 271.821 61.1731 257.783C63.2416 248.903 65.2159 239.268 67.3046 229.073C69.7842 216.957 72.3514 204.436 75.3497 191.855C79.2623 175.487 84.7303 155.418 92.9832 136.4C94.2183 138.787 95.4349 141.229 96.6389 143.715C83.9804 176.843 77.1815 214.424 71.563 245.485C70.5051 251.33 69.481 256.967 68.4703 262.321C62.6824 292.911 45.2177 366.317 7.9704 387.26C-3.57843 393.753 -16.2457 394.488 -29.6812 389.431C-43.6119 384.184 -54.7124 373.655 -65.0625 362.417ZM101.062 144.073C104.178 150.576 107.179 157.28 110.164 163.947L110.183 163.988C123.454 193.616 137.138 224.166 159.464 232.6C147.954 222.443 139.313 206.607 131.651 190.371C128.332 183.408 125.163 176.151 121.809 168.47L121.807 168.466L121.802 168.456L121.801 168.452L121.8 168.45L121.799 168.449L121.659 168.128C116.472 156.246 111.231 144.246 105.489 133.403C103.938 136.892 102.464 140.453 101.062 144.073ZM102.938 128.729C101.399 132.055 99.9323 135.449 98.5338 138.9C97.3632 136.555 96.1736 134.246 94.96 131.984C96.3863 128.896 97.8901 125.846 99.4768 122.855C100.654 124.757 101.807 126.718 102.938 128.729ZM107.485 129.047C113.985 140.848 119.705 153.951 125.199 166.537L125.217 166.577L125.458 167.129C128.765 174.699 131.892 181.86 135.155 188.706C144.154 207.772 154.471 226.232 169.058 234.83C169.883 234.931 170.703 235.015 171.52 235.081C160.574 223.55 152.376 206.669 144.858 189.913C142.431 184.511 140.005 178.765 137.514 172.864L136.954 171.539L136.954 171.539C129.464 153.789 121.563 135.063 112.017 120.073C110.439 122.993 108.93 125.989 107.485 129.047ZM109.364 116.069C107.824 118.832 106.348 121.662 104.93 124.55C103.829 122.674 102.706 120.84 101.557 119.055C102.999 116.501 104.506 114 106.081 111.563C107.197 113.012 108.291 114.516 109.364 116.069ZM114.129 116.279C124.619 132.116 132.991 151.966 140.58 169.959L140.592 169.989L140.689 170.218C143.33 176.469 145.906 182.566 148.469 188.281C156.523 206.238 165.344 224.321 177.353 235.273C178.773 235.252 180.183 235.182 181.586 235.067C172.786 223.054 165.592 207.039 158.118 189.38C156.167 184.785 154.176 179.889 152.125 174.845L152.094 174.769L152.059 174.682C142.791 151.905 132.374 126.305 118.634 108.918C117.076 111.305 115.575 113.761 114.129 116.279ZM115.796 105.501C114.301 107.746 112.858 110.05 111.464 112.409C110.433 110.972 109.382 109.576 108.31 108.225C109.734 106.163 111.211 104.154 112.743 102.209C113.778 103.26 114.796 104.358 115.796 105.501ZM120.838 105.645C135.673 123.896 146.585 150.71 155.761 173.255L155.761 173.256L155.773 173.286C157.828 178.342 159.823 183.244 161.77 187.849C169.547 206.198 176.986 222.721 186.143 234.534C187.868 234.274 189.582 233.95 191.288 233.569C184.164 221.027 178.116 205.875 171.85 190.176L171.351 188.915C170.239 186.13 169.1 183.221 167.924 180.221L167.194 178.356C156.963 152.16 143.744 118.326 125.163 99.7828C123.676 101.679 122.235 103.635 120.838 105.645ZM122.05 96.8673C120.657 98.6317 119.304 100.445 117.99 102.304C117.054 101.259 116.103 100.249 115.136 99.2767C116.491 97.6747 117.887 96.122 119.326 94.6245C120.246 95.3344 121.154 96.0828 122.05 96.8673ZM127.691 96.6714C147.052 115.817 160.48 150.173 170.895 176.818L170.927 176.9C172.355 180.554 173.736 184.074 175.071 187.431L175.576 188.692L175.594 188.737C181.965 204.7 188.108 220.09 195.328 232.559C197.259 232.026 199.181 231.427 201.097 230.771C196.473 220.467 192.242 209.088 187.888 197.375L187.887 197.374L187.853 197.282L182.267 182.3C171.257 152.747 155.328 109.998 131.734 92.1321C130.351 93.5982 129.004 95.1123 127.691 96.6714ZM128.204 89.6857C126.967 91.0121 125.759 92.3749 124.578 93.7722C123.788 93.082 122.989 92.4174 122.18 91.7798C123.4 90.6132 124.662 89.4719 125.957 88.3606C126.714 88.7767 127.462 89.2188 128.204 89.6857ZM134.582 89.2316C158.918 108.054 174.929 150.991 186.047 180.807L186.081 180.898L191.667 195.88L191.684 195.927L191.686 195.931C196.059 207.695 200.304 219.116 204.927 229.386C207.035 228.584 209.137 227.722 211.24 226.813C208.737 219.92 206.304 212.741 203.822 205.414L203.773 205.269C201.841 199.571 199.876 193.774 197.818 187.924L197.441 186.845L197.428 186.806C186.007 154.401 167.33 101.408 138.255 85.8237C137.005 86.9235 135.781 88.06 134.582 89.2316ZM134.069 83.8734C133.053 84.8015 132.054 85.7528 131.073 86.7264C130.486 86.342 129.894 85.9718 129.298 85.6161C129.549 85.4182 129.802 85.2215 130.055 85.0259C130.849 84.4152 131.642 83.8295 132.433 83.2688C132.654 83.3442 132.874 83.422 133.094 83.5021C133.42 83.6211 133.745 83.7449 134.069 83.8734ZM141.591 83.0308C171.242 100.332 189.806 152.985 201.241 185.419L201.262 185.476L201.646 186.562C203.709 192.416 205.68 198.231 207.618 203.947L207.622 203.958L207.632 203.988L207.669 204.099L207.724 204.26C210.15 211.415 212.528 218.428 214.967 225.157C217.21 224.135 219.456 223.07 221.71 221.978C221.032 219.745 220.353 217.493 219.669 215.224L219.429 214.429C216.769 205.621 214.02 196.522 211.011 187.404C201.706 159.187 179.909 93.1034 145.114 80.8859C144.958 80.8312 144.803 80.7776 144.646 80.7251C143.629 81.452 142.611 82.2206 141.591 83.0308ZM139.344 79.3956C138.81 79.8144 138.277 80.2438 137.743 80.6837C137.656 80.7551 137.57 80.8266 137.484 80.8983C137.201 80.7697 136.918 80.6443 136.634 80.5222C137.346 80.0957 138.057 79.6898 138.767 79.3043C138.959 79.333 139.152 79.3635 139.344 79.3956ZM148.87 77.9417C184.143 92.8422 205.615 157.928 214.911 186.106L214.919 186.13C218.032 195.563 220.869 204.962 223.604 214.051L223.67 214.268L223.698 214.361L223.718 214.428C224.297 216.348 224.873 218.256 225.447 220.15C226.827 219.469 228.211 218.783 229.6 218.093L229.621 218.083L229.723 218.032C230.678 217.559 231.635 217.084 232.594 216.61C230.031 206.832 227.326 196.882 224.265 186.939C204.678 123.303 182.112 86.7453 157.195 78.2901C155.111 77.5839 153.005 77.0816 150.879 76.7831C150.21 77.151 149.54 77.5372 148.87 77.9417ZM169.326 71.2782C169.714 71.3933 170.102 71.5146 170.489 71.642C207.285 83.7449 230.78 148.035 241.514 185.281C243.804 193.338 245.85 201.421 247.743 209.474C250.345 208.345 252.967 207.275 255.611 206.293C254.151 199.452 252.55 192.649 250.765 185.914C246.379 169.375 222.425 86.1654 181.344 72.9433C177.391 71.6708 173.382 71.1167 169.326 71.2782ZM256.407 210.094C253.797 211.077 251.204 212.147 248.627 213.276C249.611 217.562 250.556 221.837 251.475 226.093C253.924 224.995 256.391 223.895 258.877 222.821C258.097 218.571 257.278 214.327 256.407 210.094ZM259.59 226.773C257.149 227.835 254.722 228.922 252.314 230.003C253.295 234.606 254.251 239.184 255.2 243.726C257.423 242.746 259.667 241.702 261.932 240.624C261.187 236.01 260.41 231.39 259.59 226.773ZM265.89 238.722C265.15 234.176 264.379 229.624 263.564 225.074C270.176 222.305 276.88 219.821 283.605 218.184C289.42 216.755 295.141 215.959 300.612 215.831C311.797 215.534 324.141 217.901 338.196 222.991C346.103 225.861 354.036 229.323 361.713 232.673L361.714 232.674L362.116 232.849C366.152 234.616 370.194 236.382 374.278 238.095C396.021 247.184 414.132 251.168 431.227 250.703C489.18 249.024 509.777 190.007 526.312 142.587L528.273 136.93L528.284 136.898C535.362 116.438 542.684 95.273 552.691 79.4566C562.402 64.1864 575.493 52.5922 589.708 46.6313C590.616 46.5792 591.528 46.5507 592.447 46.5467C582.086 53.9294 572.76 64.2508 565.372 76.6854C555.258 93.7103 548.136 115.131 541.25 135.858L537.639 146.653C521.319 194.936 501.004 255.025 446.858 260.79C428.868 262.698 409.948 258.997 388.993 249.449C384.103 247.227 379.308 244.867 374.528 242.515L374.028 242.268L373.725 242.119C366.583 238.606 359.207 234.977 351.732 231.898C336.518 225.648 323.116 222.998 310.759 223.753C305.038 224.111 298.988 225.304 292.284 227.394C283.914 230.01 275.551 234.052 267.461 237.962L267.326 238.027L267.145 238.115C266.726 238.318 266.308 238.52 265.89 238.722ZM262.58 244.678C260.377 245.718 258.191 246.722 256.02 247.666C256.836 251.583 257.651 255.479 258.478 259.345C260.466 258.664 262.47 257.904 264.489 257.086C263.868 252.961 263.235 248.824 262.58 244.678ZM268.493 255.399C267.86 251.206 267.213 247 266.543 242.786C267.368 242.388 268.195 241.989 269.024 241.587L269.039 241.58L269.04 241.58C277.04 237.705 285.302 233.704 293.436 231.163C299.837 229.161 305.577 228.028 310.988 227.698C322.759 226.949 335.575 229.539 350.223 235.56C357.661 238.616 365.053 242.255 372.205 245.776L372.206 245.777L372.208 245.778L372.21 245.779L372.212 245.78L372.214 245.781L372.283 245.815C377.262 248.269 382.262 250.73 387.356 253.05C408.964 262.901 428.572 266.724 447.256 264.728C503.908 258.693 524.675 197.276 541.351 147.927L544.976 137.119L545.016 137C551.829 116.513 558.869 95.3436 568.748 78.7149C576.87 65.0463 587.384 54.0539 599.004 46.9321C600.605 47.1266 602.177 47.3919 603.719 47.7218C595.249 55.2353 587.623 64.8324 581.368 75.9976C571.291 93.9746 564.338 115.766 557.616 136.837L557.615 136.84L557.61 136.856L552.806 151.709L552.805 151.712C537.166 199.55 515.753 265.052 462.618 274.781C443.442 278.294 423.687 274.889 402.22 264.391C396.438 261.559 390.711 258.437 385.179 255.416C378.313 251.661 371.212 247.784 363.955 244.46C348.289 237.299 333.863 234.299 321.021 235.553C315.32 236.112 309.074 237.69 301.919 240.374C295.062 242.942 288.132 246.233 281.426 249.418L281.26 249.496L281.258 249.498L281.257 249.498C276.938 251.55 272.683 253.573 268.493 255.399ZM265.088 261.083C263.16 261.845 261.233 262.557 259.31 263.202C259.778 265.355 260.251 267.498 260.73 269.63C261.146 271.483 261.529 273.383 261.893 275.326C263.582 274.959 265.285 274.504 266.999 273.974L266.276 269.083C265.882 266.425 265.487 263.757 265.088 261.083ZM271.051 272.598L270.44 268.47C269.996 265.467 269.55 262.454 269.098 259.432C273.737 257.451 278.369 255.251 282.958 253.07C289.642 249.894 296.549 246.617 303.307 244.082C310.132 241.52 316.055 240.023 321.405 239.497C333.526 238.331 347.285 241.196 362.304 248.06C369.284 251.255 376.173 255.013 382.852 258.655L383.279 258.889C388.852 261.936 394.612 265.078 400.474 267.951C422.737 278.833 443.301 282.346 463.339 278.678C518.784 268.532 540.624 201.732 556.572 152.952L556.579 152.93L561.39 138.049L561.459 137.833C568.108 117.018 574.981 95.5036 584.831 77.926C591.371 66.2546 599.437 56.3789 608.38 48.9368C610.328 49.5368 612.224 50.2377 614.068 51.0256C606.825 59.1201 601.319 67.8504 597.35 75.3167C587.402 94.0544 580.641 116.015 574.098 137.266L574.077 137.334C572.824 141.427 571.584 145.459 570.338 149.383L568.303 155.856L568.301 155.861C553.39 203.396 530.852 275.247 478.372 288.805C458.279 294.011 437.681 290.909 415.419 279.359C409.149 276.102 403.01 272.432 397.066 268.88L396.809 268.726C390.145 264.728 383.252 260.601 376.157 257.048C359.831 248.876 344.738 245.613 331.276 247.393C325.582 248.134 319.127 250.09 311.554 253.373C305.726 255.902 299.796 258.936 294.062 261.876C286.195 265.911 278.515 269.848 271.051 272.598ZM267.543 277.952C265.887 278.446 264.235 278.875 262.588 279.228C263.078 282.1 263.543 285.057 264.019 288.091C264.143 288.879 264.267 289.669 264.392 290.46C265.843 290.441 267.304 290.329 268.776 290.134C268.403 285.889 268.021 281.808 267.543 277.952ZM272.931 289.375C272.539 284.931 272.133 280.663 271.615 276.618C279.715 273.737 287.865 269.56 295.895 265.442L296.445 265.162C301.953 262.35 307.621 259.456 313.151 257.055C320.374 253.926 326.472 252.065 331.795 251.371C344.455 249.712 358.773 252.841 374.365 260.642C381.322 264.126 388.151 268.216 394.744 272.166L394.754 272.171L395.134 272.399L395.135 272.399C401.094 275.963 407.24 279.638 413.58 282.926C436.765 294.954 458.286 298.157 479.382 292.696C534.02 278.57 556.963 205.447 572.137 157.056L574.172 150.597C575.418 146.659 576.658 142.621 577.918 138.514C584.4 117.424 591.111 95.6184 600.894 77.2046C604.885 69.6916 610.474 60.8629 617.867 52.805C620.063 53.9249 622.178 55.1639 624.211 56.4954C620.299 61.9791 616.66 68.0312 613.333 74.6086C603.3 94.4389 596.302 118.094 590.126 138.972L590.125 138.977L590.124 138.98L590.122 138.986L590.122 138.988L590.114 139.013C588.76 143.612 587.426 148.109 586.105 152.444L583.673 160.461C568.6 210.295 545.819 285.603 494.132 302.809C473.258 309.747 451.825 306.963 428.62 294.287C421.799 290.566 415.192 286.279 408.805 282.134L408.695 282.063L408.468 281.916L408.468 281.915L408.468 281.915L408.467 281.915L408.467 281.914C401.982 277.713 395.286 273.374 388.347 269.609C371.374 260.412 355.628 256.927 341.525 259.199C335.744 260.136 329.276 262.408 321.19 266.359C316.129 268.825 310.956 271.693 305.95 274.467L305.774 274.565L305.752 274.577C294.413 280.867 283.427 286.96 272.931 289.375ZM269.121 294.121C267.755 294.3 266.392 294.415 265.034 294.457C265.549 297.602 266.091 300.74 266.696 303.836C267.809 304.132 268.931 304.353 270.062 304.507C269.713 301.001 269.413 297.522 269.121 294.121ZM274.314 304.774C273.926 300.942 273.6 297.134 273.283 293.424L273.28 293.388C284.667 290.884 296.282 284.442 307.682 278.12L307.682 278.12L307.721 278.098L308.073 277.903L308.076 277.901C312.985 275.185 318.047 272.383 322.949 269.987C330.67 266.224 336.782 264.06 342.165 263.19C355.345 261.053 370.235 264.411 386.413 273.163C393.214 276.849 399.844 281.148 406.264 285.311L406.485 285.454C412.967 289.668 419.672 294.017 426.666 297.84C450.915 311.096 473.407 313.968 495.399 306.646C549.08 288.785 572.225 212.264 587.534 161.634L589.966 153.624C591.293 149.275 592.628 144.765 593.989 140.153L594.019 140.049C600.143 119.361 607.083 95.916 616.938 76.4359C620.184 70.0212 623.728 64.1287 627.531 58.8011C629.922 60.5582 632.187 62.4333 634.325 64.3773C632.59 67.4281 630.921 70.6087 629.322 73.9142C619.161 94.9104 612.194 119.379 606.056 140.962C604.635 145.978 603.246 150.86 601.865 155.519L599.096 164.959C584.812 214.01 560.899 296.101 509.899 316.827C488.351 325.586 466.082 323.098 441.812 309.235C434.529 305.068 427.535 300.193 420.777 295.474L420.616 295.362L420.615 295.361L420.615 295.361L420.614 295.361L420.614 295.36C414.162 290.864 407.492 286.216 400.543 282.177C388.428 275.145 370.128 267.492 351.787 271.012C345.972 272.124 339.322 274.774 330.839 279.339C326.259 281.814 321.553 284.622 316.997 287.34L316.994 287.341L316.891 287.403L316.853 287.426C302.547 295.955 287.916 304.679 274.314 304.774ZM270.513 308.78C269.549 308.676 268.589 308.529 267.632 308.335C268.157 310.7 268.73 313.029 269.369 315.303C270.076 315.742 270.788 316.143 271.504 316.507C271.128 313.941 270.802 311.359 270.513 308.78ZM276.036 318.302C275.538 315.218 275.125 312.092 274.766 308.964C289.184 308.694 304.238 299.716 318.96 290.935L318.993 290.916C323.535 288.198 328.245 285.394 332.786 282.946C340.885 278.57 347.171 276.062 352.562 275.03C369.669 271.753 386.986 279.029 398.501 285.71C402.937 288.288 407.289 291.142 411.549 294.051C398.992 286.502 380.57 278.765 362.022 282.838C356.126 284.133 349.28 287.147 340.481 292.338C336.215 294.826 331.883 297.577 327.524 300.355L327.513 300.362C309.986 311.511 291.998 322.953 276.036 318.302ZM272.292 321.39C271.903 321.236 271.514 321.073 271.127 320.901C271.584 322.204 272.07 323.482 272.589 324.732C272.73 324.882 272.872 325.03 273.015 325.176C272.757 323.923 272.516 322.661 272.292 321.39ZM278.37 329.667C277.788 327.42 277.278 325.117 276.826 322.776C294.016 326.551 312.742 314.642 329.746 303.828L329.747 303.828C334.059 301.083 338.351 298.359 342.576 295.885C350.992 290.922 357.46 288.057 362.918 286.863C380.713 282.966 398.642 290.909 410.562 298.252C413.154 299.851 415.711 301.549 418.233 303.299C405.65 296.316 389.071 290.545 372.297 294.658C366.3 296.128 359.468 299.418 350.15 305.318C346.248 307.779 342.273 310.456 338.257 313.166C317.539 327.142 296.2 341.53 278.37 329.667ZM281.406 339.068C280.941 337.904 280.504 336.714 280.095 335.5C299.157 344.564 320.932 329.883 340.56 316.651L340.589 316.632L340.607 316.619C344.583 313.94 348.518 311.288 352.387 308.851C361.314 303.194 367.763 300.072 373.301 298.717C391.75 294.172 410.333 302.796 422.643 310.82C424.157 311.807 425.657 312.829 427.144 313.876C415.343 307.619 398.95 302.024 382.572 306.491C376.495 308.123 369.696 311.656 359.825 318.324C356.261 320.724 352.622 323.3 348.937 325.923L348.935 325.924C325.122 342.842 300.529 360.315 281.406 339.068ZM286.608 348.961C292.189 357.226 298.49 361.907 305.841 363.27C322.342 366.304 341.309 352.192 359.643 338.538C371.616 329.625 382.923 321.21 392.868 318.29C408.774 313.609 424.6 318.49 436.545 324.629C435.94 324.201 435.333 323.778 434.724 323.361C424.294 316.22 403.804 305.055 383.677 310.536C376.589 312.431 368.463 317.549 362.177 321.79C358.639 324.17 355.035 326.732 351.376 329.335C330.154 344.408 306.574 361.153 286.608 348.961ZM480.635 358.562C485.124 362.277 489.751 365.846 494.59 369.001C517.951 384.232 539.775 388.042 559.497 380.281C617.658 357.417 647.197 238.9 661.394 181.938L661.395 181.936C662.682 176.765 663.867 172.025 664.952 167.804C666.207 162.915 667.499 157.67 668.852 152.179L669.042 151.406L669.048 151.382C670.875 143.948 672.802 136.105 674.901 128.058C674.045 126.346 673.195 124.637 672.347 122.933L672.345 122.929L672.263 122.764L672.137 122.512C670.537 119.293 668.918 116.038 667.274 112.78C663.533 125.472 660.326 138.076 657.318 149.909C657.05 150.958 656.784 151.998 656.52 153.029L656.517 153.041C655.38 157.489 654.285 161.77 653.208 165.828C652.117 169.887 650.951 174.385 649.698 179.233L649.681 179.295C635.905 232.3 610.288 330.864 559.47 362.494C535.508 377.409 508.989 376.085 480.635 358.562ZM679.258 128.151C686.943 143.492 695.088 158.99 705.224 172.712C723.855 197.923 749.749 220.301 780.11 237.427C788.248 242.018 796.651 246.26 805.226 250.189C802.143 248.584 799.122 246.946 796.16 245.276C766.358 228.46 741.839 207.248 723.276 182.233C709.065 163.185 698.662 141.184 688.602 119.898L688.531 119.747C687.082 116.681 685.617 113.579 684.133 110.474C682.399 116.414 680.782 122.333 679.258 128.151ZM681.396 104.795C679.615 110.697 677.956 116.594 676.395 122.41C676.181 121.981 675.968 121.551 675.755 121.123L675.719 121.051L675.377 120.364L675.375 120.361L675.367 120.345C673.241 116.078 671.086 111.752 668.88 107.438C670.58 101.896 672.391 96.3555 674.34 90.8735C674.932 91.9481 675.441 92.9103 675.867 93.7372C677.741 97.3635 679.583 101.068 681.396 104.795ZM685.787 104.923C687.937 109.372 690.046 113.835 692.119 118.226C702.098 139.337 712.414 161.156 726.395 179.893C744.635 204.476 768.75 225.331 798.067 241.871C805.444 246.031 813.196 249.982 821.362 253.741C818.903 252.445 816.486 251.127 814.109 249.786C785.925 233.887 762.483 213.599 744.419 189.481C727.633 167.067 715.891 140.88 704.535 115.556L704.456 115.381L704.145 114.687C701.104 107.895 698.077 101.137 694.963 94.4992C693.887 92.2047 692.724 89.8904 691.478 87.5764C689.444 93.3062 687.555 99.1131 685.787 104.923ZM688.731 82.7076C686.712 88.2013 684.833 93.7738 683.071 99.3618C681.838 96.8655 680.592 94.3854 679.331 91.937C678.289 89.9159 677.215 87.9426 676.11 86.019C677.694 81.7788 679.368 77.5844 681.144 73.4625C681.347 72.9932 681.55 72.5263 681.755 72.0619C684.268 75.5231 686.598 79.0975 688.731 82.7076ZM693.265 82.6666C695.195 86.051 696.952 89.4528 698.527 92.8135C701.703 99.5883 704.794 106.487 707.904 113.426L707.907 113.433L707.909 113.439L707.912 113.446L707.914 113.45L707.925 113.473L708.054 113.763C719.34 138.953 731.01 164.992 747.572 187.115C765.3 210.794 788.337 230.725 816.043 246.354C823.2 250.392 830.728 254.219 838.668 257.849C836.438 256.672 834.245 255.475 832.086 254.257C805.417 239.207 783.041 219.836 765.603 196.689C745.719 170.292 732.58 139.074 719.879 108.881C717.952 104.296 716.032 99.7313 714.091 95.2071C710.228 86.1703 705.171 76.8402 699.091 68.2673C697.026 72.9627 695.089 77.7783 693.265 82.6666ZM696.201 64.3513C694.184 68.8104 692.287 73.3791 690.496 78.0182C688.371 74.5987 686.072 71.2253 683.611 67.9602C685.502 63.8981 687.457 60.0357 689.476 56.3747C691.824 58.9052 694.068 61.577 696.201 64.3513ZM700.964 64.123C707.837 73.4489 713.498 83.725 717.744 93.6563C719.677 98.1873 721.604 102.759 723.538 107.35C736.145 137.314 749.189 168.31 768.777 194.302C785.884 217.011 807.843 236.025 834.04 250.798C840.464 254.422 847.204 257.863 854.293 261.132C852.856 260.358 851.435 259.574 850.029 258.781C824.836 244.561 803.538 226.12 786.747 203.951C763.226 172.91 748.713 135.735 734.679 99.7861L734.676 99.7786L733.2 95.9825C727.481 81.3483 718.422 65.1948 706.819 52.494C704.761 56.2503 702.813 60.1367 700.964 64.123ZM703.757 49.2839C701.761 52.8614 699.866 56.5545 698.064 60.3378C695.976 57.7179 693.79 55.1927 691.509 52.7938C693.422 49.5192 695.39 46.4187 697.412 43.4937C699.596 45.2955 701.712 47.2337 703.757 49.2839ZM708.866 48.8647C721.29 62.1274 730.924 79.132 736.933 94.5126L738.415 98.3087C752.349 134.01 766.755 170.919 789.94 201.523C806.408 223.248 827.282 241.331 852.004 255.281C858.155 258.754 864.616 262.044 871.42 265.164C870.26 264.535 869.111 263.9 867.973 263.258C844.242 249.86 824.028 232.33 807.891 211.158C782.388 177.695 767.039 137.928 752.296 96.7039C746.305 79.9523 733.299 54.9046 714.852 39.3931C712.762 42.4242 710.769 45.5886 708.866 48.8647ZM711.531 36.7517C709.535 39.6342 707.626 42.6311 705.8 45.7249C703.836 43.7992 701.81 41.9708 699.722 40.2585C701.669 37.6225 703.662 35.1435 705.702 32.8225C707.696 34.0167 709.64 35.3322 711.531 36.7517ZM717.183 36.1237C736.456 52.2416 749.934 78.052 756.117 95.3352C770.751 136.242 785.966 175.693 811.118 208.697C826.919 229.431 846.722 246.59 869.968 259.718C875.7 262.955 881.722 266.02 888.061 268.922C887.837 268.799 887.614 268.676 887.391 268.552C886.906 268.283 886.424 268.013 885.943 267.742C863.667 255.167 844.532 238.56 829.061 218.386C801.416 182.321 785.022 138.946 771.425 97.4523C762.754 71.0033 745.098 42.0356 723.159 28.6928C721.085 31.0492 719.095 33.5312 717.183 36.1237ZM719.385 26.5763C717.476 28.7845 715.637 31.0929 713.864 33.4905C712.11 32.1729 710.312 30.9384 708.47 29.7994C710.358 27.823 712.283 25.9771 714.245 24.2624C715.98 24.9337 717.694 25.7076 719.385 26.5763ZM726.076 25.5199C751.284 41.1023 768.287 74.7969 775.3 96.1915C788.782 137.341 805.02 180.331 832.296 215.912C847.422 235.64 866.14 251.883 887.938 264.195C893.296 267.219 898.925 270.08 904.852 272.785C904.522 272.601 904.193 272.417 903.866 272.232C883.019 260.46 864.961 244.777 850.192 225.614C819.103 185.294 801.968 136.343 790.514 98.2007C783.487 74.8118 762.92 31.7421 731.897 19.9814C729.89 21.7204 727.95 23.5699 726.076 25.5199ZM727.223 18.4736C725.53 20.0274 723.887 21.6557 722.291 23.3527C720.85 22.5926 719.385 21.8926 717.895 21.2579C719.605 19.9346 721.341 18.707 723.104 17.5757C724.495 17.812 725.868 18.1126 727.223 18.4736ZM735.52 17.0224C766.838 30.5497 787.375 73.4466 794.455 97.014C805.809 134.813 822.775 183.312 853.453 223.099C867.879 241.823 885.525 257.142 905.887 268.645C910.897 271.473 916.165 274.143 921.715 276.665C902.071 265.549 885.592 251.221 871.355 232.849C845.428 199.426 825.241 155.627 809.643 98.956C800.972 67.4777 775.605 19.3113 740.75 13.3467C738.96 14.4917 737.217 15.7187 735.52 17.0224ZM734.154 12.745C733.054 13.5584 731.972 14.4017 730.908 15.2736C730.07 14.9998 729.226 14.7472 728.374 14.5168C729.583 13.8862 730.791 13.305 732 12.7733C732.719 12.7457 733.437 12.7363 734.154 12.745ZM746.059 10.2731C780.425 19.7495 805.075 66.7222 813.652 97.8435C829.102 153.982 849.06 197.303 874.637 230.3C888.564 248.256 904.668 262.26 923.871 273.109C928.681 275.827 933.686 278.362 938.942 280.737C920.987 270.451 905.789 257.141 892.513 240.07C864.375 204.112 843.521 158.189 828.765 99.7044C820.565 67.2257 793.822 13.8518 756.918 8.86908C754.529 8.54967 752.123 8.43534 749.706 8.52564C748.492 9.0583 747.276 9.64081 746.059 10.2731ZM760.175 5.16058C797.96 12.4946 824.232 64.6206 832.828 98.6796C847.443 156.591 868.04 202.002 895.814 237.495C908.96 254.385 924.012 267.492 941.841 277.559C946.296 280.075 950.935 282.418 955.813 284.607C939.524 275.114 926.031 262.989 913.703 247.292C883.76 209.149 861.626 159.747 847.927 100.446C841.136 71.0554 819.264 22.2058 786.855 8.08691C778.145 4.2943 769.218 3.32155 760.175 5.16058ZM262.848 221.137C262.078 216.973 261.268 212.814 260.409 208.664C264.807 207.181 269.25 205.984 273.741 205.211C301.624 200.392 327.923 210.438 353.353 220.153L353.478 220.2C373.28 227.772 393.764 235.593 415.184 236.672C474.573 239.577 494.133 185.099 511.419 136.955L511.435 136.91C519.156 115.421 526.447 95.133 536.621 80.2118C545.376 67.3849 559.731 54.1502 577.094 48.8978C566.521 55.6936 556.963 65.461 549.396 77.3529C539.147 93.5534 531.751 114.934 524.599 135.61L524.598 135.611L524.587 135.642L522.633 141.279L522.63 141.289C505.638 189.995 486.379 245.195 431.105 246.786C414.57 247.251 396.978 243.354 375.773 234.474C372.031 232.915 368.317 231.293 364.616 229.677L363.665 229.262L363.538 229.206C355.721 225.785 347.639 222.247 339.51 219.303C324.99 214.051 312.201 211.644 300.511 211.92C294.757 212.055 288.753 212.891 282.662 214.388C275.967 216.021 269.352 218.439 262.848 221.137ZM-207.226 347.964C-219.838 353.745 -231.897 354.894 -246.092 351.438C-236.157 352.339 -224.807 351.251 -212.488 345.402C-203.048 340.891 -194.963 334.331 -187.147 327.979L-187.128 327.964L-187.128 327.964C-174.885 318.031 -163.32 308.648 -147.959 308.028C-144.536 307.887 -141.349 308.062 -138.202 308.568C-132.606 309.47 -127.52 311.177 -122.641 313.5C-124.086 313.014 -125.561 312.58 -127.071 312.202C-130.804 311.271 -134.591 310.739 -138.324 310.624C-156.415 310.166 -169.615 320.758 -182.396 331.081L-182.411 331.093C-190.122 337.326 -198.088 343.766 -207.226 347.964ZM-57.8389 353.493C-68.5372 349.878 -77.6299 344.515 -85.7528 338.861C-85.4828 339.116 -85.2124 339.372 -84.9417 339.629C-84.8039 339.76 -84.666 339.89 -84.5279 340.022L-83.7126 340.783C-71.8134 352.017 -59.51 363.627 -43.1031 369.507C-9.99292 381.407 16.979 362.38 39.3759 311.332C48.1555 291.401 53.8624 270.702 57.0899 256.832C59.1517 248.013 61.1192 238.405 63.1945 228.237L63.5129 226.685C65.9061 215.025 68.3764 202.988 71.2665 190.89C75.4306 173.46 81.3418 151.897 90.4821 131.698C89.3252 129.585 88.1494 127.525 86.9502 125.53C76.5521 145.58 69.8658 168.566 64.879 188.638C62.6514 197.641 60.6118 206.741 58.6204 215.626L58.62 215.628L58.505 216.141L58.3439 216.859C55.4863 229.593 52.7881 241.616 49.7524 252.456C45.9927 265.887 39.4366 285.744 29.5386 304.091C16.622 328.033 -3.5379 357.282 -36.4931 357.289L-36.4999 357.276C-43.0895 357.276 -50.1846 356.109 -57.8389 353.493ZM92.4594 127.457C93.8627 124.538 95.3372 121.655 96.8876 118.827C95.7919 117.19 94.6748 115.605 93.5339 114.081C91.9577 116.546 90.4531 119.082 89.0155 121.676C90.188 123.553 91.3347 125.483 92.4594 127.457ZM98.9557 115.166C100.349 112.774 101.799 110.429 103.31 108.14C102.288 106.94 101.248 105.788 100.187 104.688C98.6437 106.648 97.159 108.675 95.7301 110.761C96.8278 112.182 97.9025 113.653 98.9557 115.166ZM105.53 104.883C106.871 102.976 108.258 101.115 109.692 99.3063C108.781 98.4949 107.856 97.7213 106.916 96.9877C105.436 98.507 104.003 100.086 102.616 101.719C103.604 102.734 104.575 103.79 105.53 104.883ZM112.088 96.3865C113.313 94.9438 114.571 93.5392 115.863 92.1766C115.114 91.6948 114.357 91.2386 113.592 90.8093C112.95 91.3475 112.318 91.8915 111.694 92.4427C110.999 93.0535 110.314 93.6769 109.638 94.3125C110.465 94.9763 111.282 95.6681 112.088 96.3865ZM119.126 88.8961C120.011 88.0473 120.917 87.2099 121.841 86.3866C121.57 86.2758 121.299 86.1683 121.026 86.0642C120.75 85.9583 120.473 85.8561 120.195 85.7574C120.034 85.8699 119.873 85.9835 119.712 86.098C118.762 86.7717 117.842 87.4477 116.948 88.129C117.549 88.495 118.145 88.876 118.736 89.2715C118.866 89.146 118.996 89.0209 119.126 88.8961ZM125.262 83.4706C125.905 82.9471 126.553 82.4311 127.208 81.9235C126.995 81.8865 126.783 81.8514 126.57 81.8184C125.836 82.2118 125.101 82.6268 124.365 83.0634C124.665 83.1955 124.964 83.3312 125.262 83.4706ZM158.523 74.339C158.063 74.1832 157.603 74.0362 157.142 73.8979C161.213 73.7472 165.23 74.3204 169.182 75.6201C205.452 87.5476 229.028 157.09 237.478 186.427C239.822 194.671 241.912 202.955 243.844 211.213C241.345 212.356 238.865 213.54 236.4 214.741C233.885 205.174 231.227 195.446 228.227 185.699C208.229 120.714 184.781 83.2527 158.523 74.339ZM237.39 218.523C239.821 217.336 242.266 216.163 244.726 215.03C245.706 219.315 246.647 223.591 247.563 227.849C245.216 228.901 242.896 229.933 240.599 230.922C240.286 229.712 239.971 228.495 239.656 227.273L239.553 226.875C238.839 224.109 238.119 221.324 237.39 218.523ZM241.591 234.748C243.841 233.784 246.108 232.781 248.399 231.758C249.349 236.225 250.275 240.669 251.195 245.079L251.196 245.087L251.261 245.397C249.165 246.248 247.087 247.024 245.028 247.698C243.871 243.461 242.734 239.144 241.591 234.748ZM246.076 251.495C248.067 250.848 250.066 250.114 252.077 249.312C252.868 253.102 253.66 256.872 254.462 260.615C252.665 261.132 250.881 261.572 249.112 261.922C248.07 258.501 247.063 255.025 246.076 251.495ZM250.278 265.678C251.943 265.336 253.614 264.922 255.289 264.448C255.732 266.487 256.18 268.518 256.634 270.54C257.035 272.324 257.406 274.16 257.759 276.042C256.251 276.234 254.753 276.345 253.266 276.364C252.326 272.674 251.364 269.116 250.28 265.685L250.278 265.678ZM254.259 280.318C255.653 280.263 257.053 280.139 258.457 279.951C258.929 282.708 259.379 285.552 259.841 288.467L259.881 288.724L259.883 288.732L260.119 290.231C258.931 290.084 257.751 289.867 256.579 289.572C255.953 287.154 255.351 284.726 254.752 282.311L254.751 282.306L254.741 282.265C254.579 281.612 254.419 280.963 254.259 280.318ZM257.747 293.947C258.752 294.127 259.762 294.259 260.775 294.346C261.198 296.959 261.638 299.571 262.115 302.164C261.351 301.805 260.592 301.406 259.839 300.964C259.093 298.664 258.402 296.318 257.747 293.947ZM262.605 306.862C262.759 306.922 262.913 306.98 263.067 307.037C263.346 308.379 263.638 309.712 263.948 311.034C263.793 310.884 263.639 310.733 263.486 310.58C262.896 309.262 262.338 307.914 261.808 306.54C262.073 306.652 262.339 306.759 262.605 306.862ZM481.371 354.08C475.662 350.472 470.23 346.31 464.965 342.035C465.316 342.255 465.668 342.474 466.022 342.692C494.031 359.919 519.366 361.834 543.468 348.551C594.745 320.296 619.305 229.55 633.981 175.324L633.981 175.323L633.985 175.308C634.248 174.338 634.508 173.38 634.764 172.436C635.686 169.031 636.561 165.802 637.394 162.787C638.722 157.973 640.069 152.869 641.464 147.563C645.953 130.545 650.882 111.868 657.284 93.8827C659.764 98.2832 662.167 102.805 664.511 107.357C660.208 121.511 656.615 135.624 653.264 148.79L653.242 148.878L653.206 149.02L653.2 149.044C651.8 154.546 650.459 159.816 649.145 164.75C648.067 168.815 646.888 173.319 645.628 178.181C632.011 230.597 606.656 328.175 557.24 358.928C534.014 373.377 509.192 371.799 481.371 354.08ZM666.133 102.13C667.834 96.7654 669.645 91.4104 671.592 86.1149C669.68 82.9524 667.314 79.3245 664.51 75.5398C662.559 79.9932 660.73 84.5472 659.005 89.1612C659.409 89.8433 659.786 90.4936 660.134 91.1077C662.187 94.7201 664.182 98.4098 666.133 102.13ZM677.283 71.8038C677.805 70.5967 678.331 69.4062 678.861 68.2323C676.694 65.4775 674.409 62.8179 672.013 60.2963C670.076 63.8067 668.202 67.5023 666.391 71.3816C668.812 74.5355 671.139 77.8892 673.357 81.4312C674.609 78.1901 675.916 74.9771 677.283 71.8038ZM680.707 64.2515C682.551 60.3753 684.447 56.6917 686.395 53.1978C684.322 51.1547 682.176 49.226 679.959 47.4359C677.927 50.3619 675.951 53.4636 674.034 56.7396C676.36 59.1317 678.586 61.6471 680.707 64.2515ZM688.415 49.6763C690.243 46.5788 692.116 43.6412 694.038 40.8612C692.117 39.4476 690.149 38.1424 688.135 36.9606C686.128 39.2357 684.168 41.6616 682.256 44.2373C684.372 45.9385 686.426 47.7578 688.415 49.6763ZM696.344 37.6303C698.143 35.1923 699.983 32.8865 701.865 30.7108C700.17 29.8594 698.442 29.0976 696.68 28.4352C694.709 30.1503 692.777 31.9953 690.885 33.9691C692.744 35.0958 694.565 36.3197 696.344 37.6303ZM704.656 27.6133C706.27 25.8936 707.915 24.2652 709.591 22.7268C708.231 22.3552 706.859 22.0484 705.477 21.8097C703.705 22.9479 701.96 24.181 700.244 25.5085C701.739 26.1462 703.209 26.8496 704.656 27.6133ZM713.276 19.5308C714.361 18.6423 715.46 17.7894 716.571 16.9717C715.847 16.9612 715.122 16.9693 714.396 16.9958C713.163 17.5366 711.931 18.1289 710.698 18.7726C711.565 19.0032 712.424 19.2562 713.276 19.5308ZM-254.49 345.959C-242.97 348.436 -229.567 348.906 -214.28 341.646C-205.302 337.346 -197.415 330.944 -189.784 324.75L-189.774 324.743L-189.752 324.725L-189.752 324.725C-176.958 314.348 -164.868 304.542 -148.134 303.875C-144.448 303.72 -140.978 303.915 -137.549 304.461C-120.859 307.151 -107.718 317.162 -97.1617 325.205L-97.148 325.215L-95.4905 326.483L-95.4646 326.502C-84.0518 335.214 -72.2461 344.226 -56.5048 349.549C-23.7921 360.721 2.37799 345.645 25.8732 302.102C35.596 284.092 42.0375 264.546 45.7366 251.324C48.8024 240.387 51.5379 228.163 54.4285 215.217L54.5449 214.698C56.5428 205.787 58.5889 196.662 60.8295 187.627C66.0594 166.583 73.1458 142.372 84.3976 121.438C83.2951 119.738 82.1714 118.095 81.0232 116.514C68.0952 137.184 60.1392 163.07 54.3678 185.395C52.6429 192.104 50.9988 198.921 49.3683 205.683L49.3483 205.766C45.7644 220.623 42.3801 234.652 38.2911 247.096C34.053 260.001 26.7153 278.82 15.8201 295.136C-1.13928 320.536 -26.3661 347.85 -71.1801 333.522C-85.9885 328.777 -97.6153 322.132 -107.876 316.268L-107.877 316.268L-107.935 316.234L-111.87 313.989C-123.749 307.273 -134.692 301.643 -148.309 300.847C-151.119 300.686 -154.043 300.793 -157.479 301.211C-171.649 302.911 -182.693 311.925 -194.376 321.473C-202.159 327.831 -210.211 334.391 -219.529 339.024C-230.31 344.377 -240.268 346.137 -249.331 346.137L-249.324 346.144C-251.08 346.144 -252.802 346.078 -254.49 345.959ZM90.8102 110.614C89.2957 112.927 87.8452 115.303 86.4548 117.73C85.393 116.156 84.3095 114.628 83.2018 113.152C84.623 111.037 86.1011 108.985 87.6395 107.006C88.7172 108.155 89.7736 109.359 90.8102 110.614ZM97.1823 101.759C95.737 103.581 94.3422 105.457 92.9955 107.383C92.0211 106.237 91.0287 105.129 90.0173 104.065C91.4024 102.419 92.8339 100.832 94.3138 99.3107C95.2856 100.084 96.2416 100.901 97.1823 101.759ZM103.482 94.5299C102.155 95.9118 100.865 97.3389 99.6115 98.8072C98.7754 98.0454 97.9274 97.3126 97.067 96.6104C98.3788 95.3844 99.7267 94.209 101.112 93.0884C101.912 93.5405 102.702 94.0214 103.482 94.5299ZM109.502 88.8072C109.311 88.9732 109.121 89.14 108.932 89.3074C108.016 90.1127 107.116 90.9386 106.232 91.7841C105.616 91.3632 104.994 90.9578 104.367 90.5686C105.464 89.7592 106.607 88.9539 107.807 88.1448C108.232 88.2991 108.656 88.4619 109.079 88.6332C109.22 88.6903 109.361 88.7483 109.502 88.8072ZM115.035 84.3443C114.324 84.878 113.628 85.4139 112.945 85.9541C112.62 85.7987 112.294 85.6477 111.966 85.5011C112.741 85.0466 113.513 84.6157 114.284 84.2083C114.535 84.2508 114.785 84.2961 115.035 84.3443ZM233.582 220.397C232.868 220.75 232.156 221.103 231.445 221.456L231.339 221.508C229.756 222.294 228.169 223.082 226.576 223.865C227.743 227.685 228.909 231.444 230.091 235.128C232.288 234.336 234.499 233.471 236.727 232.555C236.333 231.033 235.937 229.502 235.539 227.961L235.531 227.927L235.448 227.605L235.435 227.557C234.822 225.184 234.206 222.797 233.582 220.397ZM237.718 236.37C235.568 237.248 233.43 238.079 231.298 238.846C232.559 242.678 233.845 246.421 235.174 250.059C237.114 249.792 239.07 249.389 241.043 248.874C239.924 244.777 238.823 240.611 237.718 236.37ZM242.092 252.667C240.25 253.15 238.415 253.543 236.584 253.83C237.618 256.531 238.681 259.168 239.782 261.734C239.94 262.101 240.096 262.469 240.251 262.84C241.811 262.841 243.383 262.747 244.966 262.569C243.982 259.314 243.028 256.014 242.092 252.667ZM246.138 266.375C244.695 266.562 243.257 266.687 241.826 266.743C242.951 269.629 244.028 272.571 245.084 275.459C246.354 275.771 247.632 275.998 248.919 276.147C248.095 272.966 247.249 269.898 246.318 266.946L246.225 266.652L246.138 266.375ZM249.96 280.255C248.869 280.178 247.782 280.052 246.7 279.874C247.535 282.138 248.389 284.4 249.281 286.633L249.391 286.695C250.213 287.156 251.04 287.571 251.871 287.942C251.479 286.387 251.095 284.832 250.711 283.283C250.459 282.264 250.209 281.254 249.96 280.255ZM253.115 292.762C252.624 292.597 252.135 292.419 251.646 292.228C252.247 293.565 252.871 294.882 253.521 296.174C253.657 296.3 253.794 296.426 253.932 296.55C254.031 296.64 254.13 296.729 254.231 296.818C253.847 295.473 253.476 294.12 253.115 292.762ZM448.555 325.031C454.84 329.972 461.335 334.92 468.185 339.125C494.806 355.496 518.773 357.39 541.453 344.89C591.185 317.482 615.462 227.801 629.969 174.211L629.969 174.209L630.389 172.658C631.444 168.754 632.438 165.077 633.385 161.668C634.699 156.868 636.047 151.777 637.442 146.484C642.224 128.349 647.5 108.348 654.542 89.2091C652.633 86.1065 650.226 82.4904 647.337 78.7001C637.958 100.036 631.406 123.983 625.587 145.249L625.576 145.291C625.335 146.167 625.095 147.038 624.857 147.904L624.853 147.921C623.736 151.986 622.651 155.933 621.58 159.72C620.556 163.286 619.478 167.109 618.339 171.155L618.332 171.182C603.73 223.008 579.297 309.725 527.445 334.567C503.97 345.813 479.585 343.575 452.896 327.716C451.432 326.847 449.986 325.95 448.555 325.031ZM661.618 71.7856C661.51 72.0247 661.402 72.2646 661.294 72.5051C659.513 76.4996 657.833 80.5729 656.242 84.697C654.268 81.6451 651.893 78.2465 649.126 74.7412C650.904 70.9396 652.749 67.3162 654.657 63.8728C657.177 66.4704 659.499 69.1411 661.618 71.7856ZM668.957 57.2154C667.077 60.5645 665.256 64.0784 663.495 67.7555C661.294 65.1098 659.024 62.6236 656.696 60.305C658.53 57.1917 660.421 54.2374 662.367 51.4434C664.638 53.2366 666.837 55.1694 668.957 57.2154ZM676.646 44.9031C674.703 47.6908 672.812 50.6308 670.975 53.7218C668.938 51.7955 666.832 49.9679 664.66 48.2595C666.58 45.6828 668.551 43.256 670.572 40.9802C672.646 42.1652 674.671 43.478 676.646 44.9031ZM684.38 34.9285C682.527 37.0667 680.714 39.3276 678.943 41.7103C677.109 40.3853 675.233 39.1507 673.314 38.0175C675.172 36.0924 677.071 34.29 679.009 32.6111C680.83 33.2813 682.62 34.0569 684.38 34.9285ZM692.085 26.9588C690.409 28.503 688.761 30.1378 687.143 31.8626C685.636 31.079 684.106 30.3605 682.553 29.7123C684.268 28.3909 686.012 27.162 687.785 26.0262C689.238 26.2689 690.671 26.5812 692.085 26.9588ZM699.027 21.2047C697.907 22.0338 696.8 22.9001 695.704 23.8033C694.807 23.512 693.902 23.2447 692.99 23.0025C694.219 22.3605 695.448 21.7695 696.678 21.2297C697.462 21.1999 698.245 21.1916 699.027 21.2047ZM-221.355 335.335C-237.307 343.241 -251.415 342.783 -263.389 340.671C-262.235 340.717 -261.063 340.743 -259.876 340.743L-259.849 340.736C-249.829 340.736 -238.651 338.922 -226.509 332.645C-217.272 327.871 -209.227 321.257 -201.458 314.865L-201.438 314.849C-190.348 305.739 -179.869 297.131 -166.919 294.402C-164.419 293.876 -161.448 293.309 -158.315 293.12C-145.257 292.318 -134.591 295.669 -123.931 299.465C-120.687 300.622 -117.351 301.899 -113.838 303.244L-112.948 303.585C-104.789 306.713 -95.5309 310.26 -84.4537 313.577C-48.7495 324.257 -22.869 316.072 2.12195 286.23C14.0616 271.983 22.1875 254.182 26.8973 241.763C31.9691 228.381 36.075 212.452 40.0494 197.032L40.1171 196.77C40.3068 196.037 40.4961 195.304 40.6853 194.572L40.777 194.217L40.8303 194.01L40.8327 194.001L40.8342 193.996L40.8349 193.993L40.8353 193.991C41.8595 190.025 42.8807 186.071 43.9241 182.179C50.4506 157.978 59.6569 129.605 75.1705 109.28C76.2574 110.473 77.3212 111.722 78.3643 113.024C64.6458 134.39 56.3485 161.268 50.3722 184.377C48.6406 191.106 46.9897 197.95 45.3592 204.726C41.7948 219.526 38.4191 233.51 34.3763 245.822C30.2191 258.477 23.0297 276.925 12.3905 292.857C-11.6168 328.802 -37.012 340.136 -69.9201 329.598C-84.346 324.979 -95.7937 318.439 -105.887 312.66L-109.842 310.408C-122.173 303.437 -133.56 297.584 -148.067 296.741C-151.146 296.559 -154.279 296.681 -157.965 297.126C-173.32 298.966 -184.815 308.352 -196.977 318.284C-204.584 324.493 -212.448 330.912 -221.355 335.335ZM80.5343 109.758C81.8763 107.807 83.2676 105.909 84.7107 104.071C83.7589 103.177 82.7905 102.326 81.8047 101.521C80.3307 103.05 78.9061 104.65 77.5287 106.313C78.5507 107.417 79.552 108.567 80.5343 109.758ZM87.087 101.156C88.3398 99.6773 89.6298 98.2435 90.9584 96.8593C90.1569 96.3253 89.3449 95.8206 88.522 95.3466C87.1411 96.4614 85.7985 97.6353 84.4926 98.8635C85.371 99.596 86.2357 100.361 87.087 101.156ZM93.7362 94.093C94.8235 93.059 95.9354 92.0577 97.0724 91.0911C96.5195 90.8562 95.962 90.635 95.4001 90.4277C94.1616 91.2246 92.98 92.0245 91.8406 92.8351C92.4789 93.2378 93.1107 93.6573 93.7362 94.093ZM100.429 88.3824C101.16 87.8211 101.909 87.2631 102.68 86.7061C102.443 86.6588 102.206 86.6141 101.968 86.5719C101.142 86.9988 100.314 87.4522 99.4844 87.9321C99.8008 88.0782 100.116 88.2283 100.429 88.3824ZM216.287 228.754C218.483 227.761 220.666 226.733 222.839 225.686C223.955 229.335 225.072 232.928 226.205 236.455C224.119 237.124 222.042 237.717 219.968 238.216C218.713 235.147 217.491 231.987 216.287 228.754ZM221.495 241.866C223.469 241.374 225.44 240.804 227.413 240.171C228.562 243.66 229.733 247.079 230.939 250.417C229.707 250.453 228.481 250.424 227.263 250.326L225.287 250.176C223.982 247.505 222.721 244.73 221.495 241.866ZM227.383 254.296C229.044 254.405 230.707 254.4 232.373 254.296C233.437 257.112 234.533 259.865 235.669 262.549C235.29 262.499 234.911 262.444 234.533 262.381C233.525 262.215 232.533 262.034 231.555 261.838C230.815 260.47 230.063 259.109 229.291 257.763C228.644 256.632 228.008 255.476 227.383 254.296ZM233.917 266.284C235.068 266.472 236.225 266.603 237.388 266.683C238.32 269.014 239.219 271.409 240.099 273.798C239.106 273.399 238.137 272.979 237.187 272.537C236.518 271.268 235.851 269.987 235.18 268.699L234.966 268.29C234.617 267.621 234.267 266.952 233.917 266.284ZM240.631 278.294C241.053 278.447 241.477 278.591 241.901 278.726C242.381 280.04 242.864 281.357 243.354 282.671C243.037 282.425 242.724 282.175 242.413 281.922C241.667 280.686 240.939 279.424 240.221 278.143L240.354 278.192C240.446 278.226 240.538 278.26 240.631 278.294ZM432.938 308.925C431.953 308.191 430.963 307.454 429.967 306.715C433.173 308.823 436.443 310.87 439.791 312.782C465.227 327.312 488.661 329.867 511.442 320.61C564.268 299.142 588.531 215.865 603.024 166.105L605.787 156.679C607.168 151.999 608.563 147.111 609.991 142.081L610.047 141.886C616.138 120.506 623.032 96.3041 633.008 75.6875C634.413 72.7857 635.872 69.9842 637.383 67.2864C639.951 69.84 642.309 72.4662 644.453 75.0623C634.465 97.1904 627.637 122.127 621.594 144.205C620.233 149.188 618.905 154.009 617.605 158.594C616.661 161.881 615.671 165.397 614.631 169.095L614.612 169.162L614.364 170.042C599.958 221.205 575.836 306.821 525.659 330.865C503.525 341.458 480.4 339.287 454.992 324.19C447.297 319.619 439.993 314.184 432.938 308.925ZM646.24 71.2215C647.971 67.6121 649.764 64.1617 651.618 60.8716C649.524 58.8944 647.311 56.9859 644.98 55.1939C643.044 57.9354 641.17 60.8247 639.364 63.8564C641.842 66.2706 644.135 68.7525 646.24 71.2215ZM653.639 57.3873C655.397 54.4446 657.206 51.6401 659.067 48.9748C657.084 47.5735 655.052 46.2815 652.972 45.1148C651.018 47.2996 649.114 49.6195 647.262 52.0701C649.425 53.7071 651.553 55.4813 653.639 57.3873ZM661.36 45.7934C663.137 43.4082 664.958 41.145 666.821 39.0048C665.062 38.1564 663.271 37.4015 661.45 36.7489C659.501 38.4307 657.591 40.2363 655.721 42.1621C657.642 43.2772 659.522 44.4915 661.36 45.7934ZM669.574 35.9662C671.163 34.2814 672.782 32.6823 674.43 31.1696C673.009 30.7972 671.57 30.4901 670.116 30.2525C668.379 31.3667 666.667 32.5733 664.98 33.8701C666.535 34.5018 668.066 35.2022 669.574 35.9662ZM678.024 28.0464C679.128 27.1393 680.244 26.2691 681.373 25.4362C680.582 25.423 679.789 25.4315 678.996 25.4617C677.971 25.9118 676.946 26.3975 675.922 26.9188C675.798 26.9816 675.675 27.0449 675.551 27.1086C675.459 27.1562 675.367 27.204 675.275 27.2521C676.198 27.4917 677.115 27.7568 678.024 28.0464ZM-272.816 335.753L-272.759 335.76C-260.3 337.324 -245.295 337.749 -228.416 329.024C-219.563 324.44 -211.693 317.973 -204.086 311.716L-204.037 311.676C-192.553 302.245 -181.71 293.339 -167.795 290.41C-165.161 289.85 -162.001 289.257 -158.598 289.048C-144.725 288.219 -133.668 291.684 -122.604 295.622C-119.118 296.862 -115.521 298.239 -111.717 299.696L-111.527 299.769L-111.174 299.904L-111.174 299.904C-103.174 302.966 -94.1053 306.437 -83.3285 309.66C-49.4636 319.801 -24.8365 312 -1.05164 283.613C10.5174 269.798 18.4344 252.443 23.0297 240.32C28.0096 227.183 32.0811 211.398 36.0203 196.125L36.0212 196.121L36.1148 195.758L36.5191 194.191L36.5209 194.184L36.5231 194.175L36.5253 194.167L36.5275 194.159C37.6558 189.784 38.782 185.418 39.9352 181.12C46.6196 156.336 56.0948 127.234 72.2767 106.295C71.2667 105.319 70.2369 104.392 69.1854 103.517C51.326 122.12 41.097 151.57 33.386 178.949C32.6808 181.455 31.9834 183.999 31.2818 186.559L31.2794 186.568L31.277 186.576L31.2752 186.583L31.2679 186.61L31.26 186.639L30.8578 188.106L30.61 189.009C26.136 205.373 21.5003 222.283 15.3958 236.416C10.2142 248.384 1.31348 265.193 -11.7042 277.309C-35.3139 299.29 -60.2712 304.016 -97.8217 293.606C-113.575 289.243 -125.461 286.263 -135.992 284.874C-145.412 283.64 -155.862 282.831 -168.388 285.34C-171.144 285.888 -173.763 286.71 -176.297 287.504L-176.298 287.504L-176.299 287.505L-176.3 287.505L-176.301 287.505L-176.302 287.506L-176.447 287.551C-188.097 291.217 -197.916 299.354 -208.313 307.969L-208.384 308.028C-216.227 314.535 -224.333 321.257 -233.584 326.253C-248.069 334.082 -261.727 335.723 -272.816 335.753ZM78.4914 99.0337C77.1667 100.425 75.8815 101.869 74.6342 103.361C73.7283 102.492 72.8065 101.658 71.8676 100.861C73.1652 99.6412 74.5011 98.4769 75.877 97.3727C76.7618 97.8914 77.6331 98.4456 78.4914 99.0337ZM84.5176 93.3255C83.3859 94.287 82.28 95.2858 81.1989 96.3194C80.519 95.8353 79.8311 95.3704 79.1349 94.9256C79.6072 94.5945 80.0838 94.2702 80.565 93.9529C81.256 93.4952 81.9667 93.042 82.7 92.591C83.3115 92.8195 83.9174 93.0645 84.5176 93.3255ZM90.2212 88.9501C89.6472 89.3497 89.0837 89.7517 88.5292 90.1569L88.3729 90.2717C88.2186 90.3853 88.0647 90.4996 87.9113 90.6146C87.588 90.4528 87.2631 90.2952 86.9366 90.142C87.4691 89.8513 88.0132 89.5598 88.5697 89.2669C88.7256 89.1847 88.8814 89.1034 89.0369 89.0231C89.1794 88.9495 89.3217 88.8767 89.4639 88.8046C89.7172 88.8504 89.9696 88.8989 90.2212 88.9501ZM212.558 230.397C210.557 231.253 208.545 232.073 206.52 232.843C207.719 235.385 208.946 237.847 210.21 240.215C212.15 239.895 214.061 239.526 215.946 239.124C214.792 236.282 213.666 233.369 212.558 230.397ZM217.468 242.794C215.74 243.17 213.99 243.523 212.216 243.838C213.331 245.776 214.475 247.64 215.655 249.423C217.283 249.57 218.931 249.699 220.608 249.825C219.533 247.544 218.489 245.197 217.468 242.794ZM222.614 253.935L222.411 253.92C221.135 253.826 219.875 253.733 218.629 253.636L218.746 253.791C220.23 255.75 221.674 257.703 223.094 259.635C224.122 259.97 225.158 260.281 226.205 260.57C226.06 260.312 225.914 260.055 225.767 259.799C224.684 257.906 223.635 255.95 222.614 253.935ZM228.782 265.284C228.168 265.144 227.559 264.998 226.953 264.846C227.833 266.018 228.715 267.177 229.605 268.316C229.781 268.431 229.957 268.544 230.133 268.656C230.345 268.791 230.557 268.925 230.77 269.057C230.112 267.798 229.451 266.539 228.782 265.284ZM641.671 52.7867C639.824 55.3979 638.034 58.1371 636.304 60.9999C634.252 59.1648 632.086 57.3909 629.81 55.7167C631.627 53.3408 633.499 51.0891 635.422 48.9661C637.583 50.1283 639.666 51.4107 641.671 52.7867ZM649.225 43.1766C647.42 45.2359 645.656 47.4054 643.938 49.6818C642.025 48.3787 640.088 47.1818 638.13 46.0948C639.943 44.2508 641.797 42.5176 643.689 40.8986C645.566 41.5541 647.412 42.3167 649.225 43.1766ZM656.875 35.3457C655.216 36.8612 653.587 38.4626 651.988 40.1477C650.432 39.3714 648.851 38.6615 647.247 38.0235C648.939 36.7348 650.659 35.5347 652.404 34.4253C653.912 34.6614 655.402 34.9696 656.875 35.3457ZM663.746 29.6824C662.636 30.5014 661.538 31.3568 660.451 32.248C659.501 31.9532 658.543 31.6843 657.577 31.4426C658.053 31.1957 658.53 30.9553 659.01 30.7215C659.734 30.3688 660.458 30.0337 661.182 29.7161C662.038 29.6802 662.892 29.669 663.746 29.6824ZM-278.203 331.614C-279.419 331.567 -280.63 331.495 -281.836 331.401C-270.562 330.706 -255.965 328.607 -240.545 319.888C-231.146 314.562 -222.831 307.583 -214.786 300.827L-214.771 300.814C-205.195 292.768 -196.15 285.169 -185.867 280.694L-184.162 279.946L-183.698 279.741C-181.961 278.977 -180.197 278.2 -178.354 277.532C-167.547 273.587 -158.154 271.329 -147.905 270.203C-136.849 268.989 -125.151 270.095 -111.096 273.662C-76.4565 282.454 -51.7822 286.836 -25.484 268.402C-11.3748 258.511 -1.67218 242.653 3.98767 231.083C11.1097 216.485 16.1901 198.981 21.0953 182.051L22.928 175.747C31.8598 145.455 42.9778 115.569 63.2537 99.2955C64.1748 99.8444 65.0798 100.431 65.9696 101.055C47.6972 120.311 37.312 150.146 29.5049 177.864C28.8091 180.346 28.1171 182.863 27.4204 185.396L27.14 186.416C26.9988 186.929 26.8573 187.443 26.7155 187.957C22.2819 204.173 17.6866 220.955 11.6966 234.811C6.6701 246.428 -1.94098 262.718 -14.4465 274.356C-37.1871 295.521 -60.2578 299.816 -96.7302 289.715C-112.652 285.306 -124.679 282.285 -135.453 280.869C-145.216 279.588 -156.058 278.752 -169.163 281.382C-172.147 281.982 -174.893 282.845 -177.546 283.679L-177.639 283.708C-190.071 287.619 -200.211 296.02 -210.945 304.927L-210.977 304.953C-218.661 311.323 -226.603 317.906 -235.484 322.707C-251.534 331.384 -266.061 332.065 -278.203 331.614ZM68.6688 98.3442C69.7463 97.3141 70.8499 96.3198 71.9806 95.3636C71.3478 95.0809 70.7083 94.816 70.0619 94.5692C68.8479 95.2886 67.6633 96.0525 66.5068 96.8588C67.2372 97.3322 67.9578 97.8276 68.6688 98.3442ZM75.3007 92.726C76.0498 92.1682 76.8101 91.6265 77.5819 91.1016L77.4442 91.0729C77.2604 91.035 77.076 90.9985 76.8913 90.9634C76.0009 91.387 75.1421 91.8109 74.3103 92.2371C74.6423 92.3957 74.9724 92.5587 75.3007 92.726ZM197.346 235.919C199.137 235.406 200.916 234.841 202.685 234.232C203.746 236.49 204.829 238.69 205.94 240.823C204.289 241.019 202.618 241.172 200.924 241.269C199.699 239.568 198.508 237.782 197.346 235.919ZM203.772 244.984C205.174 244.858 206.56 244.699 207.932 244.512C208.767 246.006 209.62 247.462 210.492 248.877C209.224 248.718 207.964 248.54 206.708 248.334C205.707 247.272 204.729 246.154 203.772 244.984ZM211.373 252.968C212.01 253.04 212.649 253.107 213.291 253.171C214.015 254.22 214.753 255.241 215.506 256.232L215.679 256.46C215.748 256.55 215.817 256.641 215.885 256.732L216.013 256.901C215.674 256.749 215.335 256.594 214.996 256.436C213.811 255.322 212.607 254.166 211.373 252.968ZM626.492 53.4035C628.171 51.2025 629.896 49.1024 631.665 47.1062C629.847 46.2836 627.979 45.5495 626.062 44.918C624.162 46.5198 622.353 48.1931 620.632 49.9159C622.654 50.9917 624.608 52.1606 626.492 53.4035ZM634.38 44.158C635.932 42.5392 637.514 40.9977 639.126 39.5357C637.643 39.1677 636.144 38.8679 634.627 38.6406C632.89 39.7323 631.214 40.8905 629.597 42.1036C631.2 42.7154 632.796 43.4008 634.38 44.158ZM642.727 36.4391C643.823 35.5483 644.93 34.6929 646.049 33.8737C645.222 33.8607 644.393 33.8709 643.563 33.9043C643.083 34.1123 642.604 34.328 642.124 34.5514C641.362 34.9063 640.609 35.2745 639.867 35.6551C640.828 35.8902 641.781 36.1519 642.727 36.4391ZM64.9719 93.0447C64.7061 92.9862 64.4392 92.9307 64.1711 92.8782C63.2776 93.2714 62.4129 93.6708 61.5715 94.0787C61.9532 94.2623 62.3322 94.4517 62.7087 94.6468C63.4514 94.0962 64.2057 93.562 64.9719 93.0447ZM59.4 97.2705C58.6987 96.95 57.9885 96.6509 57.2687 96.3738C34.4371 109.917 22.2177 140.884 12.4303 172.497L11.46 175.625C6.41333 192.097 0.692871 210.761 -7.487 225.709C-16.408 241.992 -27.1281 253.333 -39.3574 259.421C-61.1315 270.275 -80.5143 265.113 -105.042 258.581L-105.052 258.579C-111.204 256.94 -117.565 255.248 -124.431 253.677C-137.576 250.663 -148.505 251.189 -159.886 255.389C-169.211 258.828 -177.788 263.662 -187.713 269.265L-188.374 269.643C-189.587 270.324 -190.76 271.034 -191.92 271.736L-191.924 271.738L-191.928 271.74L-191.931 271.742L-192.228 271.922C-193.272 272.563 -194.31 273.19 -195.347 273.79C-204.012 278.799 -211.997 285.623 -220.439 292.851C-228.936 300.119 -237.709 307.624 -247.573 313.483C-259.58 320.63 -272.214 324.878 -288.54 327.285C-289.27 327.393 -289.997 327.491 -290.722 327.581C-288.385 327.634 -286.035 327.607 -283.661 327.48C-272.618 326.907 -257.97 325.127 -242.54 316.396C-233.464 311.251 -225.284 304.394 -217.387 297.759L-217.343 297.722C-207.549 289.497 -198.296 281.725 -187.484 277.026L-185.8 276.284C-183.832 275.415 -181.831 274.538 -179.742 273.776C-168.618 269.717 -158.935 267.384 -148.35 266.231C-136.801 264.964 -124.653 266.096 -110.126 269.778C-76.571 278.3 -52.712 282.568 -27.7951 265.126C-14.3867 255.726 -5.07483 240.468 0.369446 229.323C7.32709 215.089 12.3369 197.82 17.1868 181.103L17.2345 180.938L19.0739 174.614C28.0025 144.343 39.125 114.427 59.4 97.2705ZM193.295 236.984C191.845 237.33 190.386 237.639 188.919 237.907C189.942 239.073 190.987 240.182 192.057 241.229C193.425 241.324 194.779 241.375 196.119 241.387C195.157 239.967 194.217 238.498 193.295 236.984ZM198.901 245.276C198.194 245.296 197.483 245.307 196.768 245.307C197.02 245.497 197.273 245.685 197.528 245.869C197.629 245.942 197.73 246.015 197.831 246.087L198.073 246.261C198.19 246.345 198.306 246.428 198.422 246.51C199.031 246.684 199.639 246.847 200.246 247.001C199.793 246.436 199.345 245.861 198.901 245.276ZM621.44 43.6233C619.842 45.0579 618.31 46.5377 616.842 48.0493C615.267 47.3351 613.654 46.6796 612.003 46.0907C613.599 44.9102 615.218 43.806 616.858 42.7815C618.413 42.9938 619.94 43.2764 621.44 43.6233ZM628.228 38.1267C627.137 38.9182 626.072 39.7333 625.032 40.5691C624.064 40.2872 623.094 40.0324 622.122 39.8049C623.15 39.2831 624.185 38.7925 625.225 38.3339C625.346 38.2805 625.467 38.2275 625.588 38.175C626.469 38.1337 627.349 38.1175 628.228 38.1267ZM181.771 238.861C182.624 238.79 183.473 238.704 184.32 238.603C184.853 239.253 185.391 239.89 185.936 240.511C185.146 240.379 184.35 240.232 183.55 240.067C182.95 239.682 182.357 239.28 181.771 238.861ZM607.378 44.6481C608.386 43.8471 609.404 43.0751 610.432 42.3329C609.541 42.3309 608.648 42.353 607.754 42.3993C606.634 42.8766 605.52 43.3897 604.414 43.9376C605.414 44.1496 606.402 44.3869 607.378 44.6481ZM51.3531 94.6493C51.6692 94.7132 51.9835 94.781 52.2961 94.8528C30.2163 109.86 18.2431 140.32 8.63684 171.344L7.67334 174.479L7.64294 174.578L7.64276 174.578C2.65747 190.844 -2.98883 209.266 -10.9638 223.821C-19.4873 239.376 -29.6279 250.171 -41.116 255.888C-61.5332 266.063 -80.25 261.086 -103.939 254.786L-104.028 254.762C-110.207 253.11 -116.601 251.404 -123.541 249.82C-137.286 246.671 -149.273 247.258 -161.253 251.674C-170.882 255.221 -180.005 260.365 -189.66 265.813L-190.328 266.191C-191.682 266.953 -192.996 267.748 -194.289 268.537C-195.314 269.158 -196.331 269.771 -197.342 270.358C-206.264 275.515 -214.329 282.403 -222.864 289.692L-223.033 289.837C-231.395 296.997 -240.04 304.394 -249.608 310.078C-261.157 316.942 -273.346 321.035 -289.133 323.367C-292.492 323.862 -295.805 324.147 -299.095 324.273C-297.299 323.942 -295.491 323.555 -293.667 323.105C-278.433 319.335 -266.028 314.258 -254.614 307.118C-243.547 300.184 -233.676 291.469 -224.129 283.039L-224.085 283C-217.515 277.195 -211.303 271.713 -204.854 266.892C-203.345 265.759 -201.843 264.532 -200.306 263.271L-198.433 261.748C-195.855 259.654 -193.332 257.506 -190.814 255.363L-189.997 254.668L-189.997 254.667L-189.996 254.667L-189.995 254.666L-189.994 254.665C-183.938 249.488 -178.205 244.587 -171.96 240.542C-160.809 233.301 -150.271 231.204 -137.772 233.746C-126.283 236.079 -116.163 239.875 -106.386 243.549C-87.9379 250.474 -72.0161 256.441 -53.2578 250.474C-40.1458 246.3 -28.6036 236.18 -18.9752 220.389C-9.73071 205.252 -3.37683 185.651 1.72375 169.894L1.91241 169.314C11.6083 139.553 24.0735 106.845 49.4216 95.4903C50.0547 95.2014 50.6977 94.9214 51.3531 94.6493ZM42.2282 94.8188C41.1585 95.1652 40.1008 95.5406 39.0453 95.9488C11.9858 106.278 -0.378357 142.263 -8.55823 166.071C-13.1535 179.495 -20.1003 199.777 -30.4026 215.008C-40.7857 230.354 -53.1364 239.234 -67.1243 241.419C-84.6367 244.209 -99.3279 236.442 -114.88 228.219L-114.88 228.219L-114.896 228.21L-114.916 228.2C-126.156 222.256 -137.773 216.113 -151.059 213.761C-162.931 211.698 -173.435 215.467 -184.102 225.608C-189.544 230.779 -194.575 236.97 -199.444 242.961L-199.538 243.077L-199.905 243.529L-199.906 243.53C-202.835 247.132 -205.608 250.541 -208.5 253.771C-210.447 255.949 -212.354 258.053 -214.328 259.927L-219.482 264.856C-232.554 277.41 -246.077 290.383 -261.608 300.692C-272.732 308.028 -284.888 313.975 -298.754 318.85C-301.802 319.921 -304.8 320.804 -307.779 321.527C-303.447 321.106 -299.092 320.393 -294.597 319.282C-279.78 315.614 -267.733 310.692 -256.696 303.774C-245.922 297.036 -236.19 288.444 -226.776 280.132L-226.672 280.04C-220.042 274.181 -213.775 268.652 -207.193 263.73C-205.74 262.645 -204.294 261.46 -202.815 260.248L-202.813 260.246L-202.786 260.224L-200.899 258.673C-198.069 256.387 -195.293 254.021 -192.538 251.661C-186.642 246.617 -180.551 241.412 -174.082 237.225C-162.163 229.491 -150.365 227.158 -136.963 229.876C-125.221 232.266 -114.995 236.101 -105.109 239.808L-105.109 239.808L-104.985 239.855L-104.946 239.869C-87.2013 246.525 -71.8822 252.27 -54.4302 246.718C-42.2413 242.842 -31.4336 233.287 -22.3037 218.326C-13.3085 203.587 -7.29834 185.038 -2.00232 168.667L-1.80695 168.087C7.4314 139.722 19.1746 108.739 42.2282 94.8188ZM28.6621 96.4275C29.1378 96.2767 29.6102 96.133 30.0797 95.9962C6.5769 110.021 -4.61047 142.557 -12.2553 164.791L-12.2555 164.792L-12.2641 164.817C-17.0615 178.841 -23.6377 198.037 -33.6503 212.837C-43.4001 227.253 -54.868 235.573 -67.7375 237.582C-83.9759 240.158 -98.1188 232.701 -113.09 224.778C-124.599 218.69 -136.498 212.399 -150.398 209.931C-163.585 207.639 -175.154 211.725 -186.79 222.803C-192.407 228.149 -197.518 234.433 -202.467 240.519L-202.468 240.519L-202.563 240.637C-205.596 244.372 -208.459 247.898 -211.397 251.189C-213.29 253.299 -215.143 255.342 -217.016 257.122L-222.178 262.064L-222.274 262.157C-235.194 274.555 -248.554 287.374 -263.757 297.463C-274.612 304.623 -286.478 310.429 -300.048 315.196C-305.402 317.077 -310.608 318.354 -315.849 319.194C-311.926 317.988 -307.944 316.48 -303.861 314.595C-273.15 300.423 -245.471 279.11 -223.835 252.949C-219.484 247.703 -215.32 240.648 -210.912 233.179L-210.844 233.065L-210.772 232.942C-199.059 213.088 -185.816 190.641 -164.353 193.783C-150.493 195.799 -138.209 204.409 -126.337 212.736L-126.336 212.737C-112.598 222.372 -98.408 232.323 -81.5232 232.323H-80.9707C-44.1452 231.845 -27.8247 186.979 -18.8953 162.431L-18.8874 162.41L-18.8841 162.401C-10.0511 138.115 2.04382 104.861 28.6621 96.4275Z" fill="url(#paint0_linear_260_3597)"/>
<defs>
<linearGradient id="paint0_linear_260_3597" x1="-91" y1="-103.984" x2="763" y2="606.016" gradientUnits="userSpaceOnUse">
<stop stop-color="#005F93"/>
<stop offset="1" stop-color="#001027"/>
</linearGradient>
</defs>
</svg>
