<svg width="421" height="177" viewBox="0 0 421 177" fill="none" xmlns="http://www.w3.org/2000/svg">
<g clip-path="url(#clip0_272_3644)">
<path d="M7.45552 7.80882L0.132962 0.728824C-0.141398 0.463797 0.0478159 0 0.426243 0H7.7488C7.98532 0 8.17454 0.189305 8.17454 0.425936V7.50594C8.17454 7.88455 7.72042 8.07385 7.45552 7.80882Z" fill="#EACF86"/>
<path d="M36.9155 7.80882L29.5929 0.728824C29.3186 0.463797 29.5078 0 29.8862 0H37.2088C37.4453 0 37.6345 0.189305 37.6345 0.425936V7.50594C37.6345 7.88455 37.1804 8.07385 36.9155 7.80882Z" fill="#EACF86"/>
<path d="M66.3755 7.80882L59.0529 0.728824C58.7785 0.463797 58.9677 0 59.3462 0H66.6687C66.9052 0 67.0945 0.189305 67.0945 0.425936V7.50594C67.0945 7.88455 66.6403 8.07385 66.3755 7.80882Z" fill="#EACF86"/>
<path d="M95.8374 7.80882L88.5148 0.728824C88.2404 0.463797 88.4297 0 88.8081 0H96.1306C96.3672 0 96.5564 0.189305 96.5564 0.425936V7.50594C96.5564 7.88455 96.1023 8.07385 95.8374 7.80882Z" fill="#EACF86"/>
<path d="M125.297 7.80882L117.975 0.728824C117.7 0.463797 117.89 0 118.268 0H125.591C125.827 0 126.016 0.189305 126.016 0.425936V7.50594C126.016 7.88455 125.562 8.07385 125.297 7.80882Z" fill="#EACF86"/>
<path d="M154.757 7.80882L147.435 0.728824C147.16 0.463797 147.35 0 147.728 0H155.051C155.287 0 155.476 0.189305 155.476 0.425936V7.50594C155.476 7.88455 155.022 8.07385 154.757 7.80882Z" fill="#EACF86"/>
<path d="M184.218 7.80882L176.896 0.728824C176.621 0.463797 176.811 0 177.189 0H184.512C184.748 0 184.937 0.189305 184.937 0.425936V7.50594C184.937 7.88455 184.483 8.07385 184.218 7.80882Z" fill="#EACF86"/>
<path d="M213.679 7.80882L206.357 0.728824C206.082 0.463797 206.271 0 206.65 0H213.972C214.209 0 214.398 0.189305 214.398 0.425936V7.50594C214.398 7.88455 213.944 8.07385 213.679 7.80882Z" fill="#EACF86"/>
<path d="M243.139 7.80882L235.817 0.728824C235.542 0.463797 235.731 0 236.11 0H243.432C243.669 0 243.858 0.189305 243.858 0.425936V7.50594C243.858 7.88455 243.404 8.07385 243.139 7.80882Z" fill="#EACF86"/>
<path d="M272.6 7.80882L265.277 0.728824C265.003 0.463797 265.192 0 265.571 0H272.893C273.13 0 273.319 0.189305 273.319 0.425936V7.50594C273.319 7.88455 272.865 8.07385 272.6 7.80882Z" fill="#EACF86"/>
<path d="M302.06 7.80882L294.737 0.728824C294.463 0.463797 294.652 0 295.031 0H302.353C302.59 0 302.779 0.189305 302.779 0.425936V7.50594C302.779 7.88455 302.325 8.07385 302.06 7.80882Z" fill="#EACF86"/>
<path d="M331.521 7.80882L324.198 0.728824C323.924 0.463797 324.113 0 324.492 0H331.814C332.051 0 332.24 0.189305 332.24 0.425936V7.50594C332.24 7.88455 331.786 8.07385 331.521 7.80882Z" fill="#EACF86"/>
<path d="M360.982 7.80882L353.659 0.728824C353.385 0.463797 353.574 0 353.953 0H361.275C361.512 0 361.701 0.189305 361.701 0.425936V7.50594C361.701 7.88455 361.247 8.07385 360.982 7.80882Z" fill="#EACF86"/>
<path d="M390.442 7.80882L383.119 0.728824C382.845 0.463797 383.034 0 383.413 0H390.735C390.972 0 391.161 0.189305 391.161 0.425936V7.50594C391.161 7.88455 390.707 8.07385 390.442 7.80882Z" fill="#EACF86"/>
<path d="M419.903 7.80882L412.58 0.728824C412.306 0.463797 412.495 0 412.874 0H420.196C420.433 0 420.622 0.189305 420.622 0.425936V7.50594C420.622 7.88455 420.168 8.07385 419.903 7.80882Z" fill="#EACF86"/>
<path d="M7.45552 41.7038L0.132962 34.6238C-0.141398 34.3588 0.0478159 33.895 0.426243 33.895H7.7488C7.98532 33.895 8.17454 34.0843 8.17454 34.321V41.401C8.17454 41.7796 7.72042 41.9689 7.45552 41.7038Z" fill="#EACF86"/>
<path d="M36.9155 41.7038L29.5929 34.6238C29.3186 34.3588 29.5078 33.895 29.8862 33.895H37.2088C37.4453 33.895 37.6345 34.0843 37.6345 34.321V41.401C37.6345 41.7796 37.1804 41.9689 36.9155 41.7038Z" fill="#EACF86"/>
<path d="M66.3755 41.7038L59.0529 34.6238C58.7785 34.3588 58.9677 33.895 59.3462 33.895H66.6687C66.9052 33.895 67.0945 34.0843 67.0945 34.321V41.401C67.0945 41.7796 66.6403 41.9689 66.3755 41.7038Z" fill="#EACF86"/>
<path d="M95.8374 41.7038L88.5148 34.6238C88.2404 34.3588 88.4297 33.895 88.8081 33.895H96.1306C96.3672 33.895 96.5564 34.0843 96.5564 34.321V41.401C96.5564 41.7796 96.1023 41.9689 95.8374 41.7038Z" fill="#EACF86"/>
<path d="M125.297 41.7038L117.975 34.6238C117.7 34.3588 117.89 33.895 118.268 33.895H125.591C125.827 33.895 126.016 34.0843 126.016 34.321V41.401C126.016 41.7796 125.562 41.9689 125.297 41.7038Z" fill="#EACF86"/>
<path d="M154.757 41.7038L147.435 34.6238C147.16 34.3588 147.35 33.895 147.728 33.895H155.051C155.287 33.895 155.476 34.0843 155.476 34.321V41.401C155.476 41.7796 155.022 41.9689 154.757 41.7038Z" fill="#EACF86"/>
<path d="M184.218 41.7038L176.896 34.6238C176.621 34.3588 176.811 33.895 177.189 33.895H184.512C184.748 33.895 184.937 34.0843 184.937 34.321V41.401C184.937 41.7796 184.483 41.9689 184.218 41.7038Z" fill="#EACF86"/>
<path d="M213.679 41.7038L206.357 34.6238C206.082 34.3588 206.271 33.895 206.65 33.895H213.972C214.209 33.895 214.398 34.0843 214.398 34.321V41.401C214.398 41.7796 213.944 41.9689 213.679 41.7038Z" fill="#EACF86"/>
<path d="M243.139 41.7038L235.817 34.6238C235.542 34.3588 235.731 33.895 236.11 33.895H243.432C243.669 33.895 243.858 34.0843 243.858 34.321V41.401C243.858 41.7796 243.404 41.9689 243.139 41.7038Z" fill="#EACF86"/>
<path d="M272.6 41.7038L265.277 34.6238C265.003 34.3588 265.192 33.895 265.571 33.895H272.893C273.13 33.895 273.319 34.0843 273.319 34.321V41.401C273.319 41.7796 272.865 41.9689 272.6 41.7038Z" fill="#EACF86"/>
<path d="M302.06 41.7038L294.737 34.6238C294.463 34.3588 294.652 33.895 295.031 33.895H302.353C302.59 33.895 302.779 34.0843 302.779 34.321V41.401C302.779 41.7796 302.325 41.9689 302.06 41.7038Z" fill="#EACF86"/>
<path d="M331.521 41.7038L324.198 34.6238C323.924 34.3588 324.113 33.895 324.492 33.895H331.814C332.051 33.895 332.24 34.0843 332.24 34.321V41.401C332.24 41.7796 331.786 41.9689 331.521 41.7038Z" fill="#EACF86"/>
<path d="M360.982 41.7038L353.659 34.6238C353.385 34.3588 353.574 33.895 353.953 33.895H361.275C361.512 33.895 361.701 34.0843 361.701 34.321V41.401C361.701 41.7796 361.247 41.9689 360.982 41.7038Z" fill="#EACF86"/>
<path d="M390.442 41.7038L383.119 34.6238C382.845 34.3588 383.034 33.895 383.413 33.895H390.735C390.972 33.895 391.161 34.0843 391.161 34.321V41.401C391.161 41.7796 390.707 41.9689 390.442 41.7038Z" fill="#EACF86"/>
<path d="M419.903 41.7038L412.58 34.6238C412.306 34.3588 412.495 33.895 412.874 33.895H420.196C420.433 33.895 420.622 34.0843 420.622 34.321V41.401C420.622 41.7796 420.168 41.9689 419.903 41.7038Z" fill="#EACF86"/>
<path d="M7.45552 75.5989L0.132962 68.5189C-0.141398 68.2538 0.0478159 67.79 0.426243 67.79H7.7488C7.98532 67.79 8.17454 67.9793 8.17454 68.216V75.296C8.17454 75.6746 7.72042 75.8639 7.45552 75.5989Z" fill="#EACF86"/>
<path d="M36.9155 75.5989L29.5929 68.5189C29.3186 68.2538 29.5078 67.79 29.8862 67.79H37.2088C37.4453 67.79 37.6345 67.9793 37.6345 68.216V75.296C37.6345 75.6746 37.1804 75.8639 36.9155 75.5989Z" fill="#EACF86"/>
<path d="M66.3755 75.5989L59.0529 68.5189C58.7785 68.2538 58.9677 67.79 59.3462 67.79H66.6687C66.9052 67.79 67.0945 67.9793 67.0945 68.216V75.296C67.0945 75.6746 66.6403 75.8639 66.3755 75.5989Z" fill="#EACF86"/>
<path d="M95.8374 75.5989L88.5148 68.5189C88.2404 68.2538 88.4297 67.79 88.8081 67.79H96.1306C96.3672 67.79 96.5564 67.9793 96.5564 68.216V75.296C96.5564 75.6746 96.1023 75.8639 95.8374 75.5989Z" fill="#EACF86"/>
<path d="M125.297 75.5989L117.975 68.5189C117.7 68.2538 117.89 67.79 118.268 67.79H125.591C125.827 67.79 126.016 67.9793 126.016 68.216V75.296C126.016 75.6746 125.562 75.8639 125.297 75.5989Z" fill="#EACF86"/>
<path d="M154.757 75.5989L147.435 68.5189C147.16 68.2538 147.35 67.79 147.728 67.79H155.051C155.287 67.79 155.476 67.9793 155.476 68.216V75.296C155.476 75.6746 155.022 75.8639 154.757 75.5989Z" fill="#EACF86"/>
<path d="M184.218 75.5989L176.896 68.5189C176.621 68.2538 176.811 67.79 177.189 67.79H184.512C184.748 67.79 184.937 67.9793 184.937 68.216V75.296C184.937 75.6746 184.483 75.8639 184.218 75.5989Z" fill="#EACF86"/>
<path d="M213.679 75.5989L206.357 68.5189C206.082 68.2538 206.271 67.79 206.65 67.79H213.972C214.209 67.79 214.398 67.9793 214.398 68.216V75.296C214.398 75.6746 213.944 75.8639 213.679 75.5989Z" fill="#EACF86"/>
<path d="M243.139 75.5989L235.817 68.5189C235.542 68.2538 235.731 67.79 236.11 67.79H243.432C243.669 67.79 243.858 67.9793 243.858 68.216V75.296C243.858 75.6746 243.404 75.8639 243.139 75.5989Z" fill="#EACF86"/>
<path d="M272.6 75.5989L265.277 68.5189C265.003 68.2538 265.192 67.79 265.571 67.79H272.893C273.13 67.79 273.319 67.9793 273.319 68.216V75.296C273.319 75.6746 272.865 75.8639 272.6 75.5989Z" fill="#EACF86"/>
<path d="M302.06 75.5989L294.737 68.5189C294.463 68.2538 294.652 67.79 295.031 67.79H302.353C302.59 67.79 302.779 67.9793 302.779 68.216V75.296C302.779 75.6746 302.325 75.8639 302.06 75.5989Z" fill="#EACF86"/>
<path d="M331.521 75.5989L324.198 68.5189C323.924 68.2538 324.113 67.79 324.492 67.79H331.814C332.051 67.79 332.24 67.9793 332.24 68.216V75.296C332.24 75.6746 331.786 75.8639 331.521 75.5989Z" fill="#EACF86"/>
<path d="M360.982 75.5989L353.659 68.5189C353.385 68.2538 353.574 67.79 353.953 67.79H361.275C361.512 67.79 361.701 67.9793 361.701 68.216V75.296C361.701 75.6746 361.247 75.8639 360.982 75.5989Z" fill="#EACF86"/>
<path d="M390.442 75.5989L383.119 68.5189C382.845 68.2538 383.034 67.79 383.413 67.79H390.735C390.972 67.79 391.161 67.9793 391.161 68.216V75.296C391.161 75.6746 390.707 75.8639 390.442 75.5989Z" fill="#EACF86"/>
<path d="M419.903 75.5989L412.58 68.5189C412.306 68.2538 412.495 67.79 412.874 67.79H420.196C420.433 67.79 420.622 67.9793 420.622 68.216V75.296C420.622 75.6746 420.168 75.8639 419.903 75.5989Z" fill="#EACF86"/>
<path d="M7.45552 109.494L0.132962 102.414C-0.141398 102.149 0.0478159 101.685 0.426243 101.685H7.7488C7.98532 101.685 8.17454 101.874 8.17454 102.111V109.191C8.17454 109.57 7.72042 109.759 7.45552 109.494Z" fill="#EACF86"/>
<path d="M36.9155 109.494L29.5929 102.414C29.3186 102.149 29.5078 101.685 29.8862 101.685H37.2088C37.4453 101.685 37.6345 101.874 37.6345 102.111V109.191C37.6345 109.57 37.1804 109.759 36.9155 109.494Z" fill="#EACF86"/>
<path d="M66.3755 109.494L59.0529 102.414C58.7785 102.149 58.9677 101.685 59.3462 101.685H66.6687C66.9052 101.685 67.0945 101.874 67.0945 102.111V109.191C67.0945 109.57 66.6403 109.759 66.3755 109.494Z" fill="#EACF86"/>
<path d="M95.8374 109.494L88.5148 102.414C88.2404 102.149 88.4297 101.685 88.8081 101.685H96.1306C96.3672 101.685 96.5564 101.874 96.5564 102.111V109.191C96.5564 109.57 96.1023 109.759 95.8374 109.494Z" fill="#EACF86"/>
<path d="M125.297 109.494L117.975 102.414C117.7 102.149 117.89 101.685 118.268 101.685H125.591C125.827 101.685 126.016 101.874 126.016 102.111V109.191C126.016 109.57 125.562 109.759 125.297 109.494Z" fill="#EACF86"/>
<path d="M154.757 109.494L147.435 102.414C147.16 102.149 147.35 101.685 147.728 101.685H155.051C155.287 101.685 155.476 101.874 155.476 102.111V109.191C155.476 109.57 155.022 109.759 154.757 109.494Z" fill="#EACF86"/>
<path d="M184.218 109.494L176.896 102.414C176.621 102.149 176.811 101.685 177.189 101.685H184.512C184.748 101.685 184.937 101.874 184.937 102.111V109.191C184.937 109.57 184.483 109.759 184.218 109.494Z" fill="#EACF86"/>
<path d="M213.679 109.494L206.357 102.414C206.082 102.149 206.271 101.685 206.65 101.685H213.972C214.209 101.685 214.398 101.874 214.398 102.111V109.191C214.398 109.57 213.944 109.759 213.679 109.494Z" fill="#EACF86"/>
<path d="M243.139 109.494L235.817 102.414C235.542 102.149 235.731 101.685 236.11 101.685H243.432C243.669 101.685 243.858 101.874 243.858 102.111V109.191C243.858 109.57 243.404 109.759 243.139 109.494Z" fill="#EACF86"/>
<path d="M272.6 109.494L265.277 102.414C265.003 102.149 265.192 101.685 265.571 101.685H272.893C273.13 101.685 273.319 101.874 273.319 102.111V109.191C273.319 109.57 272.865 109.759 272.6 109.494Z" fill="#EACF86"/>
<path d="M302.06 109.494L294.737 102.414C294.463 102.149 294.652 101.685 295.031 101.685H302.353C302.59 101.685 302.779 101.874 302.779 102.111V109.191C302.779 109.57 302.325 109.759 302.06 109.494Z" fill="#EACF86"/>
<path d="M331.521 109.494L324.198 102.414C323.924 102.149 324.113 101.685 324.492 101.685H331.814C332.051 101.685 332.24 101.874 332.24 102.111V109.191C332.24 109.57 331.786 109.759 331.521 109.494Z" fill="#EACF86"/>
<path d="M360.982 109.494L353.659 102.414C353.385 102.149 353.574 101.685 353.953 101.685H361.275C361.512 101.685 361.701 101.874 361.701 102.111V109.191C361.701 109.57 361.247 109.759 360.982 109.494Z" fill="#EACF86"/>
<path d="M390.442 109.494L383.119 102.414C382.845 102.149 383.034 101.685 383.413 101.685H390.735C390.972 101.685 391.161 101.874 391.161 102.111V109.191C391.161 109.57 390.707 109.759 390.442 109.494Z" fill="#EACF86"/>
<path d="M419.903 109.494L412.58 102.414C412.306 102.149 412.495 101.685 412.874 101.685H420.196C420.433 101.685 420.622 101.874 420.622 102.111V109.191C420.622 109.57 420.168 109.759 419.903 109.494Z" fill="#EACF86"/>
<path d="M7.45552 143.389L0.132962 136.309C-0.141398 136.044 0.0478159 135.58 0.426243 135.58H7.7488C7.98532 135.58 8.17454 135.769 8.17454 136.006V143.086C8.17454 143.465 7.72042 143.654 7.45552 143.389Z" fill="#EACF86"/>
<path d="M36.9155 143.389L29.5929 136.309C29.3186 136.044 29.5078 135.58 29.8862 135.58H37.2088C37.4453 135.58 37.6345 135.769 37.6345 136.006V143.086C37.6345 143.465 37.1804 143.654 36.9155 143.389Z" fill="#EACF86"/>
<path d="M66.3755 143.389L59.0529 136.309C58.7785 136.044 58.9677 135.58 59.3462 135.58H66.6687C66.9052 135.58 67.0945 135.769 67.0945 136.006V143.086C67.0945 143.465 66.6403 143.654 66.3755 143.389Z" fill="#EACF86"/>
<path d="M95.8374 143.389L88.5148 136.309C88.2404 136.044 88.4297 135.58 88.8081 135.58H96.1306C96.3672 135.58 96.5564 135.769 96.5564 136.006V143.086C96.5564 143.465 96.1023 143.654 95.8374 143.389Z" fill="#EACF86"/>
<path d="M125.297 143.389L117.975 136.309C117.7 136.044 117.89 135.58 118.268 135.58H125.591C125.827 135.58 126.016 135.769 126.016 136.006V143.086C126.016 143.465 125.562 143.654 125.297 143.389Z" fill="#EACF86"/>
<path d="M154.757 143.389L147.435 136.309C147.16 136.044 147.35 135.58 147.728 135.58H155.051C155.287 135.58 155.476 135.769 155.476 136.006V143.086C155.476 143.465 155.022 143.654 154.757 143.389Z" fill="#EACF86"/>
<path d="M184.218 143.389L176.896 136.309C176.621 136.044 176.811 135.58 177.189 135.58H184.512C184.748 135.58 184.937 135.769 184.937 136.006V143.086C184.937 143.465 184.483 143.654 184.218 143.389Z" fill="#EACF86"/>
<path d="M213.679 143.389L206.357 136.309C206.082 136.044 206.271 135.58 206.65 135.58H213.972C214.209 135.58 214.398 135.769 214.398 136.006V143.086C214.398 143.465 213.944 143.654 213.679 143.389Z" fill="#EACF86"/>
<path d="M243.139 143.389L235.817 136.309C235.542 136.044 235.731 135.58 236.11 135.58H243.432C243.669 135.58 243.858 135.769 243.858 136.006V143.086C243.858 143.465 243.404 143.654 243.139 143.389Z" fill="#EACF86"/>
<path d="M272.6 143.389L265.277 136.309C265.003 136.044 265.192 135.58 265.571 135.58H272.893C273.13 135.58 273.319 135.769 273.319 136.006V143.086C273.319 143.465 272.865 143.654 272.6 143.389Z" fill="#EACF86"/>
<path d="M302.06 143.389L294.737 136.309C294.463 136.044 294.652 135.58 295.031 135.58H302.353C302.59 135.58 302.779 135.769 302.779 136.006V143.086C302.779 143.465 302.325 143.654 302.06 143.389Z" fill="#EACF86"/>
<path d="M331.521 143.389L324.198 136.309C323.924 136.044 324.113 135.58 324.492 135.58H331.814C332.051 135.58 332.24 135.769 332.24 136.006V143.086C332.24 143.465 331.786 143.654 331.521 143.389Z" fill="#EACF86"/>
<path d="M360.982 143.389L353.659 136.309C353.385 136.044 353.574 135.58 353.953 135.58H361.275C361.512 135.58 361.701 135.769 361.701 136.006V143.086C361.701 143.465 361.247 143.654 360.982 143.389Z" fill="#EACF86"/>
<path d="M390.442 143.389L383.119 136.309C382.845 136.044 383.034 135.58 383.413 135.58H390.735C390.972 135.58 391.161 135.769 391.161 136.006V143.086C391.161 143.465 390.707 143.654 390.442 143.389Z" fill="#EACF86"/>
<path d="M419.903 143.389L412.58 136.309C412.306 136.044 412.495 135.58 412.874 135.58H420.196C420.433 135.58 420.622 135.769 420.622 136.006V143.086C420.622 143.465 420.168 143.654 419.903 143.389Z" fill="#EACF86"/>
<path d="M7.45552 177.284L0.132962 170.204C-0.141398 169.939 0.0478159 169.475 0.426243 169.475H7.7488C7.98532 169.475 8.17454 169.664 8.17454 169.901V176.981C8.17454 177.36 7.72042 177.549 7.45552 177.284Z" fill="#EACF86"/>
<path d="M36.9155 177.284L29.5929 170.204C29.3186 169.939 29.5078 169.475 29.8862 169.475H37.2088C37.4453 169.475 37.6345 169.664 37.6345 169.901V176.981C37.6345 177.36 37.1804 177.549 36.9155 177.284Z" fill="#EACF86"/>
<path d="M66.3755 177.284L59.0529 170.204C58.7785 169.939 58.9677 169.475 59.3462 169.475H66.6687C66.9052 169.475 67.0945 169.664 67.0945 169.901V176.981C67.0945 177.36 66.6403 177.549 66.3755 177.284Z" fill="#EACF86"/>
<path d="M95.8374 177.284L88.5148 170.204C88.2404 169.939 88.4297 169.475 88.8081 169.475H96.1306C96.3672 169.475 96.5564 169.664 96.5564 169.901V176.981C96.5564 177.36 96.1023 177.549 95.8374 177.284Z" fill="#EACF86"/>
<path d="M125.297 177.284L117.975 170.204C117.7 169.939 117.89 169.475 118.268 169.475H125.591C125.827 169.475 126.016 169.664 126.016 169.901V176.981C126.016 177.36 125.562 177.549 125.297 177.284Z" fill="#EACF86"/>
<path d="M154.757 177.284L147.435 170.204C147.16 169.939 147.35 169.475 147.728 169.475H155.051C155.287 169.475 155.476 169.664 155.476 169.901V176.981C155.476 177.36 155.022 177.549 154.757 177.284Z" fill="#EACF86"/>
<path d="M184.218 177.284L176.896 170.204C176.621 169.939 176.811 169.475 177.189 169.475H184.512C184.748 169.475 184.937 169.664 184.937 169.901V176.981C184.937 177.36 184.483 177.549 184.218 177.284Z" fill="#EACF86"/>
<path d="M213.679 177.284L206.357 170.204C206.082 169.939 206.271 169.475 206.65 169.475H213.972C214.209 169.475 214.398 169.664 214.398 169.901V176.981C214.398 177.36 213.944 177.549 213.679 177.284Z" fill="#EACF86"/>
<path d="M243.139 177.284L235.817 170.204C235.542 169.939 235.731 169.475 236.11 169.475H243.432C243.669 169.475 243.858 169.664 243.858 169.901V176.981C243.858 177.36 243.404 177.549 243.139 177.284Z" fill="#EACF86"/>
<path d="M272.6 177.284L265.277 170.204C265.003 169.939 265.192 169.475 265.571 169.475H272.893C273.13 169.475 273.319 169.664 273.319 169.901V176.981C273.319 177.36 272.865 177.549 272.6 177.284Z" fill="#EACF86"/>
<path d="M302.06 177.284L294.737 170.204C294.463 169.939 294.652 169.475 295.031 169.475H302.353C302.59 169.475 302.779 169.664 302.779 169.901V176.981C302.779 177.36 302.325 177.549 302.06 177.284Z" fill="#EACF86"/>
<path d="M331.521 177.284L324.198 170.204C323.924 169.939 324.113 169.475 324.492 169.475H331.814C332.051 169.475 332.24 169.664 332.24 169.901V176.981C332.24 177.36 331.786 177.549 331.521 177.284Z" fill="#EACF86"/>
<path d="M360.982 177.284L353.659 170.204C353.385 169.939 353.574 169.475 353.953 169.475H361.275C361.512 169.475 361.701 169.664 361.701 169.901V176.981C361.701 177.36 361.247 177.549 360.982 177.284Z" fill="#EACF86"/>
<path d="M390.442 177.284L383.119 170.204C382.845 169.939 383.034 169.475 383.413 169.475H390.735C390.972 169.475 391.161 169.664 391.161 169.901V176.981C391.161 177.36 390.707 177.549 390.442 177.284Z" fill="#EACF86"/>
<path d="M419.903 177.284L412.58 170.204C412.306 169.939 412.495 169.475 412.874 169.475H420.196C420.433 169.475 420.622 169.664 420.622 169.901V176.981C420.622 177.36 420.168 177.549 419.903 177.284Z" fill="#EACF86"/>
</g>
<defs>
<clipPath id="clip0_272_3644">
<rect width="421" height="177" fill="white"/>
</clipPath>
</defs>
</svg>
