<svg width="311" height="680" viewBox="0 0 311 680" fill="none" xmlns="http://www.w3.org/2000/svg">
<mask id="mask0_400_2084" style="mask-type:luminance" maskUnits="userSpaceOnUse" x="-74" y="0" width="410" height="680">
<path d="M335.33 0.859985H-73.0298V679.24H335.33V0.859985Z" fill="white"/>
</mask>
<g mask="url(#mask0_400_2084)">
<path d="M8.30006 17.87L0.560051 10.39C0.270051 10.11 0.470056 9.62 0.870056 9.62H8.61005C8.86005 9.62 9.06005 9.81999 9.06005 10.07V17.55C9.06005 17.95 8.58006 18.15 8.30006 17.87Z" fill="#EACF86"/>
<path d="M39.4402 17.87L31.7002 10.39C31.4102 10.11 31.6102 9.62 32.0102 9.62H39.7502C40.0002 9.62 40.2002 9.81999 40.2002 10.07V17.55C40.2002 17.95 39.7202 18.15 39.4402 17.87Z" fill="#EACF86"/>
<path d="M70.5801 17.87L62.8401 10.39C62.5501 10.11 62.7501 9.62 63.1501 9.62H70.8901C71.1401 9.62 71.3401 9.81999 71.3401 10.07V17.55C71.3401 17.95 70.8601 18.15 70.5801 17.87Z" fill="#EACF86"/>
<path d="M101.72 17.87L93.9802 10.39C93.6902 10.11 93.8902 9.62 94.2902 9.62H102.03C102.28 9.62 102.48 9.81999 102.48 10.07V17.55C102.48 17.95 102 18.15 101.72 17.87Z" fill="#EACF86"/>
<path d="M132.86 17.87L125.12 10.39C124.83 10.11 125.03 9.62 125.43 9.62H133.17C133.42 9.62 133.62 9.81999 133.62 10.07V17.55C133.62 17.95 133.14 18.15 132.86 17.87Z" fill="#EACF86"/>
<path d="M164 17.87L156.26 10.39C155.97 10.11 156.17 9.62 156.57 9.62H164.31C164.56 9.62 164.76 9.81999 164.76 10.07V17.55C164.76 17.95 164.28 18.15 164 17.87Z" fill="#EACF86"/>
<path d="M195.14 17.87L187.4 10.39C187.11 10.11 187.31 9.62 187.71 9.62H195.45C195.7 9.62 195.9 9.81999 195.9 10.07V17.55C195.9 17.95 195.42 18.15 195.14 17.87Z" fill="#EACF86"/>
<path d="M226.28 17.87L218.54 10.39C218.25 10.11 218.45 9.62 218.85 9.62H226.59C226.84 9.62 227.04 9.81999 227.04 10.07V17.55C227.04 17.95 226.56 18.15 226.28 17.87Z" fill="#EACF86"/>
<path d="M257.42 17.87L249.68 10.39C249.39 10.11 249.59 9.62 249.99 9.62H257.73C257.98 9.62 258.18 9.81999 258.18 10.07V17.55C258.18 17.95 257.7 18.15 257.42 17.87Z" fill="#EACF86"/>
<path d="M288.56 17.87L280.82 10.39C280.53 10.11 280.73 9.62 281.13 9.62H288.87C289.12 9.62 289.32 9.81999 289.32 10.07V17.55C289.32 17.95 288.84 18.15 288.56 17.87Z" fill="#EACF86"/>
<path d="M8.30006 53.6801L0.560051 46.2001C0.270051 45.9201 0.470056 45.4301 0.870056 45.4301H8.61005C8.86005 45.4301 9.06005 45.6301 9.06005 45.8801V53.3601C9.06005 53.7601 8.58006 53.9601 8.30006 53.6801Z" fill="#EACF86"/>
<path d="M39.4402 53.6801L31.7002 46.2001C31.4102 45.9201 31.6102 45.4301 32.0102 45.4301H39.7502C40.0002 45.4301 40.2002 45.6301 40.2002 45.8801V53.3601C40.2002 53.7601 39.7202 53.9601 39.4402 53.6801Z" fill="#EACF86"/>
<path d="M70.5801 53.6801L62.8401 46.2001C62.5501 45.9201 62.7501 45.4301 63.1501 45.4301H70.8901C71.1401 45.4301 71.3401 45.6301 71.3401 45.8801V53.3601C71.3401 53.7601 70.8601 53.9601 70.5801 53.6801Z" fill="#EACF86"/>
<path d="M101.72 53.6801L93.9802 46.2001C93.6902 45.9201 93.8902 45.4301 94.2902 45.4301H102.03C102.28 45.4301 102.48 45.6301 102.48 45.8801V53.3601C102.48 53.7601 102 53.9601 101.72 53.6801Z" fill="#EACF86"/>
<path d="M132.86 53.6801L125.12 46.2001C124.83 45.9201 125.03 45.4301 125.43 45.4301H133.17C133.42 45.4301 133.62 45.6301 133.62 45.8801V53.3601C133.62 53.7601 133.14 53.9601 132.86 53.6801Z" fill="#EACF86"/>
<path d="M164 53.6801L156.26 46.2001C155.97 45.9201 156.17 45.4301 156.57 45.4301H164.31C164.56 45.4301 164.76 45.6301 164.76 45.8801V53.3601C164.76 53.7601 164.28 53.9601 164 53.6801Z" fill="#EACF86"/>
<path d="M195.14 53.6801L187.4 46.2001C187.11 45.9201 187.31 45.4301 187.71 45.4301H195.45C195.7 45.4301 195.9 45.6301 195.9 45.8801V53.3601C195.9 53.7601 195.42 53.9601 195.14 53.6801Z" fill="#EACF86"/>
<path d="M226.28 53.6801L218.54 46.2001C218.25 45.9201 218.45 45.4301 218.85 45.4301H226.59C226.84 45.4301 227.04 45.6301 227.04 45.8801V53.3601C227.04 53.7601 226.56 53.9601 226.28 53.6801Z" fill="#EACF86"/>
<path d="M257.42 53.6801L249.68 46.2001C249.39 45.9201 249.59 45.4301 249.99 45.4301H257.73C257.98 45.4301 258.18 45.6301 258.18 45.8801V53.3601C258.18 53.7601 257.7 53.9601 257.42 53.6801Z" fill="#EACF86"/>
<path d="M288.56 53.6801L280.82 46.2001C280.53 45.9201 280.73 45.4301 281.13 45.4301H288.87C289.12 45.4301 289.32 45.6301 289.32 45.8801V53.3601C289.32 53.7601 288.84 53.9601 288.56 53.6801Z" fill="#EACF86"/>
<path d="M8.30006 89.49L0.560051 82.01C0.270051 81.73 0.470056 81.24 0.870056 81.24H8.61005C8.86005 81.24 9.06005 81.44 9.06005 81.69V89.17C9.06005 89.57 8.58006 89.77 8.30006 89.49Z" fill="#EACF86"/>
<path d="M39.4402 89.49L31.7002 82.01C31.4102 81.73 31.6102 81.24 32.0102 81.24H39.7502C40.0002 81.24 40.2002 81.44 40.2002 81.69V89.17C40.2002 89.57 39.7202 89.77 39.4402 89.49Z" fill="#EACF86"/>
<path d="M70.5801 89.49L62.8401 82.01C62.5501 81.73 62.7501 81.24 63.1501 81.24H70.8901C71.1401 81.24 71.3401 81.44 71.3401 81.69V89.17C71.3401 89.57 70.8601 89.77 70.5801 89.49Z" fill="#EACF86"/>
<path d="M101.72 89.49L93.9802 82.01C93.6902 81.73 93.8902 81.24 94.2902 81.24H102.03C102.28 81.24 102.48 81.44 102.48 81.69V89.17C102.48 89.57 102 89.77 101.72 89.49Z" fill="#EACF86"/>
<path d="M132.86 89.49L125.12 82.01C124.83 81.73 125.03 81.24 125.43 81.24H133.17C133.42 81.24 133.62 81.44 133.62 81.69V89.17C133.62 89.57 133.14 89.77 132.86 89.49Z" fill="#EACF86"/>
<path d="M164 89.49L156.26 82.01C155.97 81.73 156.17 81.24 156.57 81.24H164.31C164.56 81.24 164.76 81.44 164.76 81.69V89.17C164.76 89.57 164.28 89.77 164 89.49Z" fill="#EACF86"/>
<path d="M195.14 89.49L187.4 82.01C187.11 81.73 187.31 81.24 187.71 81.24H195.45C195.7 81.24 195.9 81.44 195.9 81.69V89.17C195.9 89.57 195.42 89.77 195.14 89.49Z" fill="#EACF86"/>
<path d="M226.28 89.49L218.54 82.01C218.25 81.73 218.45 81.24 218.85 81.24H226.59C226.84 81.24 227.04 81.44 227.04 81.69V89.17C227.04 89.57 226.56 89.77 226.28 89.49Z" fill="#EACF86"/>
<path d="M257.42 89.49L249.68 82.01C249.39 81.73 249.59 81.24 249.99 81.24H257.73C257.98 81.24 258.18 81.44 258.18 81.69V89.17C258.18 89.57 257.7 89.77 257.42 89.49Z" fill="#EACF86"/>
<path d="M288.56 89.49L280.82 82.01C280.53 81.73 280.73 81.24 281.13 81.24H288.87C289.12 81.24 289.32 81.44 289.32 81.69V89.17C289.32 89.57 288.84 89.77 288.56 89.49Z" fill="#EACF86"/>
<path d="M8.30006 125.3L0.560051 117.82C0.270051 117.54 0.470056 117.05 0.870056 117.05H8.61005C8.86005 117.05 9.06005 117.25 9.06005 117.5V124.98C9.06005 125.38 8.58006 125.58 8.30006 125.3Z" fill="#EACF86"/>
<path d="M39.4402 125.3L31.7002 117.82C31.4102 117.54 31.6102 117.05 32.0102 117.05H39.7502C40.0002 117.05 40.2002 117.25 40.2002 117.5V124.98C40.2002 125.38 39.7202 125.58 39.4402 125.3Z" fill="#EACF86"/>
<path d="M70.5801 125.3L62.8401 117.82C62.5501 117.54 62.7501 117.05 63.1501 117.05H70.8901C71.1401 117.05 71.3401 117.25 71.3401 117.5V124.98C71.3401 125.38 70.8601 125.58 70.5801 125.3Z" fill="#EACF86"/>
<path d="M101.72 125.3L93.9802 117.82C93.6902 117.54 93.8902 117.05 94.2902 117.05H102.03C102.28 117.05 102.48 117.25 102.48 117.5V124.98C102.48 125.38 102 125.58 101.72 125.3Z" fill="#EACF86"/>
<path d="M132.86 125.3L125.12 117.82C124.83 117.54 125.03 117.05 125.43 117.05H133.17C133.42 117.05 133.62 117.25 133.62 117.5V124.98C133.62 125.38 133.14 125.58 132.86 125.3Z" fill="#EACF86"/>
<path d="M164 125.3L156.26 117.82C155.97 117.54 156.17 117.05 156.57 117.05H164.31C164.56 117.05 164.76 117.25 164.76 117.5V124.98C164.76 125.38 164.28 125.58 164 125.3Z" fill="#EACF86"/>
<path d="M195.14 125.3L187.4 117.82C187.11 117.54 187.31 117.05 187.71 117.05H195.45C195.7 117.05 195.9 117.25 195.9 117.5V124.98C195.9 125.38 195.42 125.58 195.14 125.3Z" fill="#EACF86"/>
<path d="M226.28 125.3L218.54 117.82C218.25 117.54 218.45 117.05 218.85 117.05H226.59C226.84 117.05 227.04 117.25 227.04 117.5V124.98C227.04 125.38 226.56 125.58 226.28 125.3Z" fill="#EACF86"/>
<path d="M257.42 125.3L249.68 117.82C249.39 117.54 249.59 117.05 249.99 117.05H257.73C257.98 117.05 258.18 117.25 258.18 117.5V124.98C258.18 125.38 257.7 125.58 257.42 125.3Z" fill="#EACF86"/>
<path d="M288.56 125.3L280.82 117.82C280.53 117.54 280.73 117.05 281.13 117.05H288.87C289.12 117.05 289.32 117.25 289.32 117.5V124.98C289.32 125.38 288.84 125.58 288.56 125.3Z" fill="#EACF86"/>
<path d="M8.30006 161.1L0.560051 153.62C0.270051 153.34 0.470056 152.85 0.870056 152.85H8.61005C8.86005 152.85 9.06005 153.05 9.06005 153.3V160.78C9.06005 161.18 8.58006 161.38 8.30006 161.1Z" fill="#EACF86"/>
<path d="M39.4402 161.1L31.7002 153.62C31.4102 153.34 31.6102 152.85 32.0102 152.85H39.7502C40.0002 152.85 40.2002 153.05 40.2002 153.3V160.78C40.2002 161.18 39.7202 161.38 39.4402 161.1Z" fill="#EACF86"/>
<path d="M70.5801 161.1L62.8401 153.62C62.5501 153.34 62.7501 152.85 63.1501 152.85H70.8901C71.1401 152.85 71.3401 153.05 71.3401 153.3V160.78C71.3401 161.18 70.8601 161.38 70.5801 161.1Z" fill="#EACF86"/>
<path d="M101.72 161.1L93.9802 153.62C93.6902 153.34 93.8902 152.85 94.2902 152.85H102.03C102.28 152.85 102.48 153.05 102.48 153.3V160.78C102.48 161.18 102 161.38 101.72 161.1Z" fill="#EACF86"/>
<path d="M132.86 161.1L125.12 153.62C124.83 153.34 125.03 152.85 125.43 152.85H133.17C133.42 152.85 133.62 153.05 133.62 153.3V160.78C133.62 161.18 133.14 161.38 132.86 161.1Z" fill="#EACF86"/>
<path d="M164 161.1L156.26 153.62C155.97 153.34 156.17 152.85 156.57 152.85H164.31C164.56 152.85 164.76 153.05 164.76 153.3V160.78C164.76 161.18 164.28 161.38 164 161.1Z" fill="#EACF86"/>
<path d="M195.14 161.1L187.4 153.62C187.11 153.34 187.31 152.85 187.71 152.85H195.45C195.7 152.85 195.9 153.05 195.9 153.3V160.78C195.9 161.18 195.42 161.38 195.14 161.1Z" fill="#EACF86"/>
<path d="M226.28 161.1L218.54 153.62C218.25 153.34 218.45 152.85 218.85 152.85H226.59C226.84 152.85 227.04 153.05 227.04 153.3V160.78C227.04 161.18 226.56 161.38 226.28 161.1Z" fill="#EACF86"/>
<path d="M257.42 161.1L249.68 153.62C249.39 153.34 249.59 152.85 249.99 152.85H257.73C257.98 152.85 258.18 153.05 258.18 153.3V160.78C258.18 161.18 257.7 161.38 257.42 161.1Z" fill="#EACF86"/>
<path d="M288.56 161.1L280.82 153.62C280.53 153.34 280.73 152.85 281.13 152.85H288.87C289.12 152.85 289.32 153.05 289.32 153.3V160.78C289.32 161.18 288.84 161.38 288.56 161.1Z" fill="#EACF86"/>
<path d="M8.30006 196.91L0.560051 189.43C0.270051 189.15 0.470056 188.66 0.870056 188.66H8.61005C8.86005 188.66 9.06005 188.86 9.06005 189.11V196.59C9.06005 196.99 8.58006 197.19 8.30006 196.91Z" fill="#EACF86"/>
<path d="M39.4402 196.91L31.7002 189.43C31.4102 189.15 31.6102 188.66 32.0102 188.66H39.7502C40.0002 188.66 40.2002 188.86 40.2002 189.11V196.59C40.2002 196.99 39.7202 197.19 39.4402 196.91Z" fill="#EACF86"/>
<path d="M70.5801 196.91L62.8401 189.43C62.5501 189.15 62.7501 188.66 63.1501 188.66H70.8901C71.1401 188.66 71.3401 188.86 71.3401 189.11V196.59C71.3401 196.99 70.8601 197.19 70.5801 196.91Z" fill="#EACF86"/>
<path d="M101.72 196.91L93.9802 189.43C93.6902 189.15 93.8902 188.66 94.2902 188.66H102.03C102.28 188.66 102.48 188.86 102.48 189.11V196.59C102.48 196.99 102 197.19 101.72 196.91Z" fill="#EACF86"/>
<path d="M132.86 196.91L125.12 189.43C124.83 189.15 125.03 188.66 125.43 188.66H133.17C133.42 188.66 133.62 188.86 133.62 189.11V196.59C133.62 196.99 133.14 197.19 132.86 196.91Z" fill="#EACF86"/>
<path d="M164 196.91L156.26 189.43C155.97 189.15 156.17 188.66 156.57 188.66H164.31C164.56 188.66 164.76 188.86 164.76 189.11V196.59C164.76 196.99 164.28 197.19 164 196.91Z" fill="#EACF86"/>
<path d="M195.14 196.91L187.4 189.43C187.11 189.15 187.31 188.66 187.71 188.66H195.45C195.7 188.66 195.9 188.86 195.9 189.11V196.59C195.9 196.99 195.42 197.19 195.14 196.91Z" fill="#EACF86"/>
<path d="M226.28 196.91L218.54 189.43C218.25 189.15 218.45 188.66 218.85 188.66H226.59C226.84 188.66 227.04 188.86 227.04 189.11V196.59C227.04 196.99 226.56 197.19 226.28 196.91Z" fill="#EACF86"/>
<path d="M257.42 196.91L249.68 189.43C249.39 189.15 249.59 188.66 249.99 188.66H257.73C257.98 188.66 258.18 188.86 258.18 189.11V196.59C258.18 196.99 257.7 197.19 257.42 196.91Z" fill="#EACF86"/>
<path d="M288.56 196.91L280.82 189.43C280.53 189.15 280.73 188.66 281.13 188.66H288.87C289.12 188.66 289.32 188.86 289.32 189.11V196.59C289.32 196.99 288.84 197.19 288.56 196.91Z" fill="#EACF86"/>
<path d="M8.30006 232.72L0.560051 225.24C0.270051 224.96 0.470056 224.47 0.870056 224.47H8.61005C8.86005 224.47 9.06005 224.67 9.06005 224.92V232.4C9.06005 232.8 8.58006 233 8.30006 232.72Z" fill="#EACF86"/>
<path d="M39.4402 232.72L31.7002 225.24C31.4102 224.96 31.6102 224.47 32.0102 224.47H39.7502C40.0002 224.47 40.2002 224.67 40.2002 224.92V232.4C40.2002 232.8 39.7202 233 39.4402 232.72Z" fill="#EACF86"/>
<path d="M70.5801 232.72L62.8401 225.24C62.5501 224.96 62.7501 224.47 63.1501 224.47H70.8901C71.1401 224.47 71.3401 224.67 71.3401 224.92V232.4C71.3401 232.8 70.8601 233 70.5801 232.72Z" fill="#EACF86"/>
<path d="M101.72 232.72L93.9802 225.24C93.6902 224.96 93.8902 224.47 94.2902 224.47H102.03C102.28 224.47 102.48 224.67 102.48 224.92V232.4C102.48 232.8 102 233 101.72 232.72Z" fill="#EACF86"/>
<path d="M132.86 232.72L125.12 225.24C124.83 224.96 125.03 224.47 125.43 224.47H133.17C133.42 224.47 133.62 224.67 133.62 224.92V232.4C133.62 232.8 133.14 233 132.86 232.72Z" fill="#EACF86"/>
<path d="M164 232.72L156.26 225.24C155.97 224.96 156.17 224.47 156.57 224.47H164.31C164.56 224.47 164.76 224.67 164.76 224.92V232.4C164.76 232.8 164.28 233 164 232.72Z" fill="#EACF86"/>
<path d="M195.14 232.72L187.4 225.24C187.11 224.96 187.31 224.47 187.71 224.47H195.45C195.7 224.47 195.9 224.67 195.9 224.92V232.4C195.9 232.8 195.42 233 195.14 232.72Z" fill="#EACF86"/>
<path d="M226.28 232.72L218.54 225.24C218.25 224.96 218.45 224.47 218.85 224.47H226.59C226.84 224.47 227.04 224.67 227.04 224.92V232.4C227.04 232.8 226.56 233 226.28 232.72Z" fill="#EACF86"/>
<path d="M257.42 232.72L249.68 225.24C249.39 224.96 249.59 224.47 249.99 224.47H257.73C257.98 224.47 258.18 224.67 258.18 224.92V232.4C258.18 232.8 257.7 233 257.42 232.72Z" fill="#EACF86"/>
<path d="M288.56 232.72L280.82 225.24C280.53 224.96 280.73 224.47 281.13 224.47H288.87C289.12 224.47 289.32 224.67 289.32 224.92V232.4C289.32 232.8 288.84 233 288.56 232.72Z" fill="#EACF86"/>
<path d="M8.30006 268.53L0.560051 261.05C0.270051 260.77 0.470056 260.28 0.870056 260.28H8.61005C8.86005 260.28 9.06005 260.48 9.06005 260.73V268.21C9.06005 268.61 8.58006 268.81 8.30006 268.53Z" fill="#EACF86"/>
<path d="M39.4402 268.53L31.7002 261.05C31.4102 260.77 31.6102 260.28 32.0102 260.28H39.7502C40.0002 260.28 40.2002 260.48 40.2002 260.73V268.21C40.2002 268.61 39.7202 268.81 39.4402 268.53Z" fill="#EACF86"/>
<path d="M70.5801 268.53L62.8401 261.05C62.5501 260.77 62.7501 260.28 63.1501 260.28H70.8901C71.1401 260.28 71.3401 260.48 71.3401 260.73V268.21C71.3401 268.61 70.8601 268.81 70.5801 268.53Z" fill="#EACF86"/>
<path d="M101.72 268.53L93.9802 261.05C93.6902 260.77 93.8902 260.28 94.2902 260.28H102.03C102.28 260.28 102.48 260.48 102.48 260.73V268.21C102.48 268.61 102 268.81 101.72 268.53Z" fill="#EACF86"/>
<path d="M132.86 268.53L125.12 261.05C124.83 260.77 125.03 260.28 125.43 260.28H133.17C133.42 260.28 133.62 260.48 133.62 260.73V268.21C133.62 268.61 133.14 268.81 132.86 268.53Z" fill="#EACF86"/>
<path d="M164 268.53L156.26 261.05C155.97 260.77 156.17 260.28 156.57 260.28H164.31C164.56 260.28 164.76 260.48 164.76 260.73V268.21C164.76 268.61 164.28 268.81 164 268.53Z" fill="#EACF86"/>
<path d="M195.14 268.53L187.4 261.05C187.11 260.77 187.31 260.28 187.71 260.28H195.45C195.7 260.28 195.9 260.48 195.9 260.73V268.21C195.9 268.61 195.42 268.81 195.14 268.53Z" fill="#EACF86"/>
<path d="M226.28 268.53L218.54 261.05C218.25 260.77 218.45 260.28 218.85 260.28H226.59C226.84 260.28 227.04 260.48 227.04 260.73V268.21C227.04 268.61 226.56 268.81 226.28 268.53Z" fill="#EACF86"/>
<path d="M257.42 268.53L249.68 261.05C249.39 260.77 249.59 260.28 249.99 260.28H257.73C257.98 260.28 258.18 260.48 258.18 260.73V268.21C258.18 268.61 257.7 268.81 257.42 268.53Z" fill="#EACF86"/>
<path d="M288.56 268.53L280.82 261.05C280.53 260.77 280.73 260.28 281.13 260.28H288.87C289.12 260.28 289.32 260.48 289.32 260.73V268.21C289.32 268.61 288.84 268.81 288.56 268.53Z" fill="#EACF86"/>
<path d="M8.30006 304.34L0.560051 296.86C0.270051 296.58 0.470056 296.09 0.870056 296.09H8.61005C8.86005 296.09 9.06005 296.29 9.06005 296.54V304.02C9.06005 304.42 8.58006 304.62 8.30006 304.34Z" fill="#EACF86"/>
<path d="M39.4402 304.34L31.7002 296.86C31.4102 296.58 31.6102 296.09 32.0102 296.09H39.7502C40.0002 296.09 40.2002 296.29 40.2002 296.54V304.02C40.2002 304.42 39.7202 304.62 39.4402 304.34Z" fill="#EACF86"/>
<path d="M70.5801 304.34L62.8401 296.86C62.5501 296.58 62.7501 296.09 63.1501 296.09H70.8901C71.1401 296.09 71.3401 296.29 71.3401 296.54V304.02C71.3401 304.42 70.8601 304.62 70.5801 304.34Z" fill="#EACF86"/>
<path d="M101.72 304.34L93.9802 296.86C93.6902 296.58 93.8902 296.09 94.2902 296.09H102.03C102.28 296.09 102.48 296.29 102.48 296.54V304.02C102.48 304.42 102 304.62 101.72 304.34Z" fill="#EACF86"/>
<path d="M132.86 304.34L125.12 296.86C124.83 296.58 125.03 296.09 125.43 296.09H133.17C133.42 296.09 133.62 296.29 133.62 296.54V304.02C133.62 304.42 133.14 304.62 132.86 304.34Z" fill="#EACF86"/>
<path d="M164 304.34L156.26 296.86C155.97 296.58 156.17 296.09 156.57 296.09H164.31C164.56 296.09 164.76 296.29 164.76 296.54V304.02C164.76 304.42 164.28 304.62 164 304.34Z" fill="#EACF86"/>
<path d="M195.14 304.34L187.4 296.86C187.11 296.58 187.31 296.09 187.71 296.09H195.45C195.7 296.09 195.9 296.29 195.9 296.54V304.02C195.9 304.42 195.42 304.62 195.14 304.34Z" fill="#EACF86"/>
<path d="M226.28 304.34L218.54 296.86C218.25 296.58 218.45 296.09 218.85 296.09H226.59C226.84 296.09 227.04 296.29 227.04 296.54V304.02C227.04 304.42 226.56 304.62 226.28 304.34Z" fill="#EACF86"/>
<path d="M257.42 304.34L249.68 296.86C249.39 296.58 249.59 296.09 249.99 296.09H257.73C257.98 296.09 258.18 296.29 258.18 296.54V304.02C258.18 304.42 257.7 304.62 257.42 304.34Z" fill="#EACF86"/>
<path d="M288.56 304.34L280.82 296.86C280.53 296.58 280.73 296.09 281.13 296.09H288.87C289.12 296.09 289.32 296.29 289.32 296.54V304.02C289.32 304.42 288.84 304.62 288.56 304.34Z" fill="#EACF86"/>
<path d="M8.30006 340.15L0.560051 332.67C0.270051 332.39 0.470056 331.9 0.870056 331.9H8.61005C8.86005 331.9 9.06005 332.1 9.06005 332.35V339.83C9.06005 340.23 8.58006 340.43 8.30006 340.15Z" fill="#EACF86"/>
<path d="M39.4402 340.15L31.7002 332.67C31.4102 332.39 31.6102 331.9 32.0102 331.9H39.7502C40.0002 331.9 40.2002 332.1 40.2002 332.35V339.83C40.2002 340.23 39.7202 340.43 39.4402 340.15Z" fill="#EACF86"/>
<path d="M70.5801 340.15L62.8401 332.67C62.5501 332.39 62.7501 331.9 63.1501 331.9H70.8901C71.1401 331.9 71.3401 332.1 71.3401 332.35V339.83C71.3401 340.23 70.8601 340.43 70.5801 340.15Z" fill="#EACF86"/>
<path d="M101.72 340.15L93.9802 332.67C93.6902 332.39 93.8902 331.9 94.2902 331.9H102.03C102.28 331.9 102.48 332.1 102.48 332.35V339.83C102.48 340.23 102 340.43 101.72 340.15Z" fill="#EACF86"/>
<path d="M132.86 340.15L125.12 332.67C124.83 332.39 125.03 331.9 125.43 331.9H133.17C133.42 331.9 133.62 332.1 133.62 332.35V339.83C133.62 340.23 133.14 340.43 132.86 340.15Z" fill="#EACF86"/>
<path d="M164 340.15L156.26 332.67C155.97 332.39 156.17 331.9 156.57 331.9H164.31C164.56 331.9 164.76 332.1 164.76 332.35V339.83C164.76 340.23 164.28 340.43 164 340.15Z" fill="#EACF86"/>
<path d="M195.14 340.15L187.4 332.67C187.11 332.39 187.31 331.9 187.71 331.9H195.45C195.7 331.9 195.9 332.1 195.9 332.35V339.83C195.9 340.23 195.42 340.43 195.14 340.15Z" fill="#EACF86"/>
<path d="M226.28 340.15L218.54 332.67C218.25 332.39 218.45 331.9 218.85 331.9H226.59C226.84 331.9 227.04 332.1 227.04 332.35V339.83C227.04 340.23 226.56 340.43 226.28 340.15Z" fill="#EACF86"/>
<path d="M257.42 340.15L249.68 332.67C249.39 332.39 249.59 331.9 249.99 331.9H257.73C257.98 331.9 258.18 332.1 258.18 332.35V339.83C258.18 340.23 257.7 340.43 257.42 340.15Z" fill="#EACF86"/>
<path d="M288.56 340.15L280.82 332.67C280.53 332.39 280.73 331.9 281.13 331.9H288.87C289.12 331.9 289.32 332.1 289.32 332.35V339.83C289.32 340.23 288.84 340.43 288.56 340.15Z" fill="#EACF86"/>
<path d="M8.30006 375.96L0.560051 368.48C0.270051 368.2 0.470056 367.71 0.870056 367.71H8.61005C8.86005 367.71 9.06005 367.91 9.06005 368.16V375.64C9.06005 376.04 8.58006 376.24 8.30006 375.96Z" fill="#EACF86"/>
<path d="M39.4402 375.96L31.7002 368.48C31.4102 368.2 31.6102 367.71 32.0102 367.71H39.7502C40.0002 367.71 40.2002 367.91 40.2002 368.16V375.64C40.2002 376.04 39.7202 376.24 39.4402 375.96Z" fill="#EACF86"/>
<path d="M70.5801 375.96L62.8401 368.48C62.5501 368.2 62.7501 367.71 63.1501 367.71H70.8901C71.1401 367.71 71.3401 367.91 71.3401 368.16V375.64C71.3401 376.04 70.8601 376.24 70.5801 375.96Z" fill="#EACF86"/>
<path d="M101.72 375.96L93.9802 368.48C93.6902 368.2 93.8902 367.71 94.2902 367.71H102.03C102.28 367.71 102.48 367.91 102.48 368.16V375.64C102.48 376.04 102 376.24 101.72 375.96Z" fill="#EACF86"/>
<path d="M132.86 375.96L125.12 368.48C124.83 368.2 125.03 367.71 125.43 367.71H133.17C133.42 367.71 133.62 367.91 133.62 368.16V375.64C133.62 376.04 133.14 376.24 132.86 375.96Z" fill="#EACF86"/>
<path d="M164 375.96L156.26 368.48C155.97 368.2 156.17 367.71 156.57 367.71H164.31C164.56 367.71 164.76 367.91 164.76 368.16V375.64C164.76 376.04 164.28 376.24 164 375.96Z" fill="#EACF86"/>
<path d="M195.14 375.96L187.4 368.48C187.11 368.2 187.31 367.71 187.71 367.71H195.45C195.7 367.71 195.9 367.91 195.9 368.16V375.64C195.9 376.04 195.42 376.24 195.14 375.96Z" fill="#EACF86"/>
<path d="M226.28 375.96L218.54 368.48C218.25 368.2 218.45 367.71 218.85 367.71H226.59C226.84 367.71 227.04 367.91 227.04 368.16V375.64C227.04 376.04 226.56 376.24 226.28 375.96Z" fill="#EACF86"/>
<path d="M257.42 375.96L249.68 368.48C249.39 368.2 249.59 367.71 249.99 367.71H257.73C257.98 367.71 258.18 367.91 258.18 368.16V375.64C258.18 376.04 257.7 376.24 257.42 375.96Z" fill="#EACF86"/>
<path d="M288.56 375.96L280.82 368.48C280.53 368.2 280.73 367.71 281.13 367.71H288.87C289.12 367.71 289.32 367.91 289.32 368.16V375.64C289.32 376.04 288.84 376.24 288.56 375.96Z" fill="#EACF86"/>
<path d="M8.30006 411.77L0.560051 404.29C0.270051 404.01 0.470056 403.52 0.870056 403.52H8.61005C8.86005 403.52 9.06005 403.72 9.06005 403.97V411.45C9.06005 411.85 8.58006 412.05 8.30006 411.77Z" fill="#EACF86"/>
<path d="M39.4402 411.77L31.7002 404.29C31.4102 404.01 31.6102 403.52 32.0102 403.52H39.7502C40.0002 403.52 40.2002 403.72 40.2002 403.97V411.45C40.2002 411.85 39.7202 412.05 39.4402 411.77Z" fill="#EACF86"/>
<path d="M70.5801 411.77L62.8401 404.29C62.5501 404.01 62.7501 403.52 63.1501 403.52H70.8901C71.1401 403.52 71.3401 403.72 71.3401 403.97V411.45C71.3401 411.85 70.8601 412.05 70.5801 411.77Z" fill="#EACF86"/>
<path d="M101.72 411.77L93.9802 404.29C93.6902 404.01 93.8902 403.52 94.2902 403.52H102.03C102.28 403.52 102.48 403.72 102.48 403.97V411.45C102.48 411.85 102 412.05 101.72 411.77Z" fill="#EACF86"/>
<path d="M132.86 411.77L125.12 404.29C124.83 404.01 125.03 403.52 125.43 403.52H133.17C133.42 403.52 133.62 403.72 133.62 403.97V411.45C133.62 411.85 133.14 412.05 132.86 411.77Z" fill="#EACF86"/>
<path d="M164 411.77L156.26 404.29C155.97 404.01 156.17 403.52 156.57 403.52H164.31C164.56 403.52 164.76 403.72 164.76 403.97V411.45C164.76 411.85 164.28 412.05 164 411.77Z" fill="#EACF86"/>
<path d="M195.14 411.77L187.4 404.29C187.11 404.01 187.31 403.52 187.71 403.52H195.45C195.7 403.52 195.9 403.72 195.9 403.97V411.45C195.9 411.85 195.42 412.05 195.14 411.77Z" fill="#EACF86"/>
<path d="M226.28 411.77L218.54 404.29C218.25 404.01 218.45 403.52 218.85 403.52H226.59C226.84 403.52 227.04 403.72 227.04 403.97V411.45C227.04 411.85 226.56 412.05 226.28 411.77Z" fill="#EACF86"/>
<path d="M257.42 411.77L249.68 404.29C249.39 404.01 249.59 403.52 249.99 403.52H257.73C257.98 403.52 258.18 403.72 258.18 403.97V411.45C258.18 411.85 257.7 412.05 257.42 411.77Z" fill="#EACF86"/>
<path d="M288.56 411.77L280.82 404.29C280.53 404.01 280.73 403.52 281.13 403.52H288.87C289.12 403.52 289.32 403.72 289.32 403.97V411.45C289.32 411.85 288.84 412.05 288.56 411.77Z" fill="#EACF86"/>
<path d="M8.30006 447.58L0.560051 440.1C0.270051 439.82 0.470056 439.33 0.870056 439.33H8.61005C8.86005 439.33 9.06005 439.53 9.06005 439.78V447.26C9.06005 447.66 8.58006 447.86 8.30006 447.58Z" fill="#EACF86"/>
<path d="M39.4402 447.58L31.7002 440.1C31.4102 439.82 31.6102 439.33 32.0102 439.33H39.7502C40.0002 439.33 40.2002 439.53 40.2002 439.78V447.26C40.2002 447.66 39.7202 447.86 39.4402 447.58Z" fill="#EACF86"/>
<path d="M70.5801 447.58L62.8401 440.1C62.5501 439.82 62.7501 439.33 63.1501 439.33H70.8901C71.1401 439.33 71.3401 439.53 71.3401 439.78V447.26C71.3401 447.66 70.8601 447.86 70.5801 447.58Z" fill="#EACF86"/>
<path d="M101.72 447.58L93.9802 440.1C93.6902 439.82 93.8902 439.33 94.2902 439.33H102.03C102.28 439.33 102.48 439.53 102.48 439.78V447.26C102.48 447.66 102 447.86 101.72 447.58Z" fill="#EACF86"/>
<path d="M132.86 447.58L125.12 440.1C124.83 439.82 125.03 439.33 125.43 439.33H133.17C133.42 439.33 133.62 439.53 133.62 439.78V447.26C133.62 447.66 133.14 447.86 132.86 447.58Z" fill="#EACF86"/>
<path d="M164 447.58L156.26 440.1C155.97 439.82 156.17 439.33 156.57 439.33H164.31C164.56 439.33 164.76 439.53 164.76 439.78V447.26C164.76 447.66 164.28 447.86 164 447.58Z" fill="#EACF86"/>
<path d="M195.14 447.58L187.4 440.1C187.11 439.82 187.31 439.33 187.71 439.33H195.45C195.7 439.33 195.9 439.53 195.9 439.78V447.26C195.9 447.66 195.42 447.86 195.14 447.58Z" fill="#EACF86"/>
<path d="M226.28 447.58L218.54 440.1C218.25 439.82 218.45 439.33 218.85 439.33H226.59C226.84 439.33 227.04 439.53 227.04 439.78V447.26C227.04 447.66 226.56 447.86 226.28 447.58Z" fill="#EACF86"/>
<path d="M257.42 447.58L249.68 440.1C249.39 439.82 249.59 439.33 249.99 439.33H257.73C257.98 439.33 258.18 439.53 258.18 439.78V447.26C258.18 447.66 257.7 447.86 257.42 447.58Z" fill="#EACF86"/>
<path d="M288.56 447.58L280.82 440.1C280.53 439.82 280.73 439.33 281.13 439.33H288.87C289.12 439.33 289.32 439.53 289.32 439.78V447.26C289.32 447.66 288.84 447.86 288.56 447.58Z" fill="#EACF86"/>
<path d="M8.30006 483.39L0.560051 475.91C0.270051 475.63 0.470056 475.14 0.870056 475.14H8.61005C8.86005 475.14 9.06005 475.34 9.06005 475.59V483.07C9.06005 483.47 8.58006 483.67 8.30006 483.39Z" fill="#EACF86"/>
<path d="M39.4402 483.39L31.7002 475.91C31.4102 475.63 31.6102 475.14 32.0102 475.14H39.7502C40.0002 475.14 40.2002 475.34 40.2002 475.59V483.07C40.2002 483.47 39.7202 483.67 39.4402 483.39Z" fill="#EACF86"/>
<path d="M70.5801 483.39L62.8401 475.91C62.5501 475.63 62.7501 475.14 63.1501 475.14H70.8901C71.1401 475.14 71.3401 475.34 71.3401 475.59V483.07C71.3401 483.47 70.8601 483.67 70.5801 483.39Z" fill="#EACF86"/>
<path d="M101.72 483.39L93.9802 475.91C93.6902 475.63 93.8902 475.14 94.2902 475.14H102.03C102.28 475.14 102.48 475.34 102.48 475.59V483.07C102.48 483.47 102 483.67 101.72 483.39Z" fill="#EACF86"/>
<path d="M132.86 483.39L125.12 475.91C124.83 475.63 125.03 475.14 125.43 475.14H133.17C133.42 475.14 133.62 475.34 133.62 475.59V483.07C133.62 483.47 133.14 483.67 132.86 483.39Z" fill="#EACF86"/>
<path d="M164 483.39L156.26 475.91C155.97 475.63 156.17 475.14 156.57 475.14H164.31C164.56 475.14 164.76 475.34 164.76 475.59V483.07C164.76 483.47 164.28 483.67 164 483.39Z" fill="#EACF86"/>
<path d="M195.14 483.39L187.4 475.91C187.11 475.63 187.31 475.14 187.71 475.14H195.45C195.7 475.14 195.9 475.34 195.9 475.59V483.07C195.9 483.47 195.42 483.67 195.14 483.39Z" fill="#EACF86"/>
<path d="M226.28 483.39L218.54 475.91C218.25 475.63 218.45 475.14 218.85 475.14H226.59C226.84 475.14 227.04 475.34 227.04 475.59V483.07C227.04 483.47 226.56 483.67 226.28 483.39Z" fill="#EACF86"/>
<path d="M257.42 483.39L249.68 475.91C249.39 475.63 249.59 475.14 249.99 475.14H257.73C257.98 475.14 258.18 475.34 258.18 475.59V483.07C258.18 483.47 257.7 483.67 257.42 483.39Z" fill="#EACF86"/>
<path d="M288.56 483.39L280.82 475.91C280.53 475.63 280.73 475.14 281.13 475.14H288.87C289.12 475.14 289.32 475.34 289.32 475.59V483.07C289.32 483.47 288.84 483.67 288.56 483.39Z" fill="#EACF86"/>
<path d="M8.30006 519.19L0.560051 511.71C0.270051 511.43 0.470056 510.94 0.870056 510.94H8.61005C8.86005 510.94 9.06005 511.14 9.06005 511.39V518.87C9.06005 519.27 8.58006 519.47 8.30006 519.19Z" fill="#EACF86"/>
<path d="M39.4402 519.19L31.7002 511.71C31.4102 511.43 31.6102 510.94 32.0102 510.94H39.7502C40.0002 510.94 40.2002 511.14 40.2002 511.39V518.87C40.2002 519.27 39.7202 519.47 39.4402 519.19Z" fill="#EACF86"/>
<path d="M70.5801 519.19L62.8401 511.71C62.5501 511.43 62.7501 510.94 63.1501 510.94H70.8901C71.1401 510.94 71.3401 511.14 71.3401 511.39V518.87C71.3401 519.27 70.8601 519.47 70.5801 519.19Z" fill="#EACF86"/>
<path d="M101.72 519.19L93.9802 511.71C93.6902 511.43 93.8902 510.94 94.2902 510.94H102.03C102.28 510.94 102.48 511.14 102.48 511.39V518.87C102.48 519.27 102 519.47 101.72 519.19Z" fill="#EACF86"/>
<path d="M132.86 519.19L125.12 511.71C124.83 511.43 125.03 510.94 125.43 510.94H133.17C133.42 510.94 133.62 511.14 133.62 511.39V518.87C133.62 519.27 133.14 519.47 132.86 519.19Z" fill="#EACF86"/>
<path d="M164 519.19L156.26 511.71C155.97 511.43 156.17 510.94 156.57 510.94H164.31C164.56 510.94 164.76 511.14 164.76 511.39V518.87C164.76 519.27 164.28 519.47 164 519.19Z" fill="#EACF86"/>
<path d="M195.14 519.19L187.4 511.71C187.11 511.43 187.31 510.94 187.71 510.94H195.45C195.7 510.94 195.9 511.14 195.9 511.39V518.87C195.9 519.27 195.42 519.47 195.14 519.19Z" fill="#EACF86"/>
<path d="M226.28 519.19L218.54 511.71C218.25 511.43 218.45 510.94 218.85 510.94H226.59C226.84 510.94 227.04 511.14 227.04 511.39V518.87C227.04 519.27 226.56 519.47 226.28 519.19Z" fill="#EACF86"/>
<path d="M257.42 519.19L249.68 511.71C249.39 511.43 249.59 510.94 249.99 510.94H257.73C257.98 510.94 258.18 511.14 258.18 511.39V518.87C258.18 519.27 257.7 519.47 257.42 519.19Z" fill="#EACF86"/>
<path d="M288.56 519.19L280.82 511.71C280.53 511.43 280.73 510.94 281.13 510.94H288.87C289.12 510.94 289.32 511.14 289.32 511.39V518.87C289.32 519.27 288.84 519.47 288.56 519.19Z" fill="#EACF86"/>
<path d="M8.30006 555L0.560051 547.52C0.270051 547.24 0.470056 546.75 0.870056 546.75H8.61005C8.86005 546.75 9.06005 546.95 9.06005 547.2V554.68C9.06005 555.08 8.58006 555.28 8.30006 555Z" fill="#EACF86"/>
<path d="M39.4402 555L31.7002 547.52C31.4102 547.24 31.6102 546.75 32.0102 546.75H39.7502C40.0002 546.75 40.2002 546.95 40.2002 547.2V554.68C40.2002 555.08 39.7202 555.28 39.4402 555Z" fill="#EACF86"/>
<path d="M70.5801 555L62.8401 547.52C62.5501 547.24 62.7501 546.75 63.1501 546.75H70.8901C71.1401 546.75 71.3401 546.95 71.3401 547.2V554.68C71.3401 555.08 70.8601 555.28 70.5801 555Z" fill="#EACF86"/>
<path d="M101.72 555L93.9802 547.52C93.6902 547.24 93.8902 546.75 94.2902 546.75H102.03C102.28 546.75 102.48 546.95 102.48 547.2V554.68C102.48 555.08 102 555.28 101.72 555Z" fill="#EACF86"/>
<path d="M132.86 555L125.12 547.52C124.83 547.24 125.03 546.75 125.43 546.75H133.17C133.42 546.75 133.62 546.95 133.62 547.2V554.68C133.62 555.08 133.14 555.28 132.86 555Z" fill="#EACF86"/>
<path d="M164 555L156.26 547.52C155.97 547.24 156.17 546.75 156.57 546.75H164.31C164.56 546.75 164.76 546.95 164.76 547.2V554.68C164.76 555.08 164.28 555.28 164 555Z" fill="#EACF86"/>
<path d="M195.14 555L187.4 547.52C187.11 547.24 187.31 546.75 187.71 546.75H195.45C195.7 546.75 195.9 546.95 195.9 547.2V554.68C195.9 555.08 195.42 555.28 195.14 555Z" fill="#EACF86"/>
<path d="M226.28 555L218.54 547.52C218.25 547.24 218.45 546.75 218.85 546.75H226.59C226.84 546.75 227.04 546.95 227.04 547.2V554.68C227.04 555.08 226.56 555.28 226.28 555Z" fill="#EACF86"/>
<path d="M257.42 555L249.68 547.52C249.39 547.24 249.59 546.75 249.99 546.75H257.73C257.98 546.75 258.18 546.95 258.18 547.2V554.68C258.18 555.08 257.7 555.28 257.42 555Z" fill="#EACF86"/>
<path d="M288.56 555L280.82 547.52C280.53 547.24 280.73 546.75 281.13 546.75H288.87C289.12 546.75 289.32 546.95 289.32 547.2V554.68C289.32 555.08 288.84 555.28 288.56 555Z" fill="#EACF86"/>
<path d="M8.30006 590.81L0.560051 583.33C0.270051 583.05 0.470056 582.56 0.870056 582.56H8.61005C8.86005 582.56 9.06005 582.76 9.06005 583.01V590.49C9.06005 590.89 8.58006 591.09 8.30006 590.81Z" fill="#EACF86"/>
<path d="M39.4402 590.81L31.7002 583.33C31.4102 583.05 31.6102 582.56 32.0102 582.56H39.7502C40.0002 582.56 40.2002 582.76 40.2002 583.01V590.49C40.2002 590.89 39.7202 591.09 39.4402 590.81Z" fill="#EACF86"/>
<path d="M70.5801 590.81L62.8401 583.33C62.5501 583.05 62.7501 582.56 63.1501 582.56H70.8901C71.1401 582.56 71.3401 582.76 71.3401 583.01V590.49C71.3401 590.89 70.8601 591.09 70.5801 590.81Z" fill="#EACF86"/>
<path d="M101.72 590.81L93.9802 583.33C93.6902 583.05 93.8902 582.56 94.2902 582.56H102.03C102.28 582.56 102.48 582.76 102.48 583.01V590.49C102.48 590.89 102 591.09 101.72 590.81Z" fill="#EACF86"/>
<path d="M132.86 590.81L125.12 583.33C124.83 583.05 125.03 582.56 125.43 582.56H133.17C133.42 582.56 133.62 582.76 133.62 583.01V590.49C133.62 590.89 133.14 591.09 132.86 590.81Z" fill="#EACF86"/>
<path d="M164 590.81L156.26 583.33C155.97 583.05 156.17 582.56 156.57 582.56H164.31C164.56 582.56 164.76 582.76 164.76 583.01V590.49C164.76 590.89 164.28 591.09 164 590.81Z" fill="#EACF86"/>
<path d="M195.14 590.81L187.4 583.33C187.11 583.05 187.31 582.56 187.71 582.56H195.45C195.7 582.56 195.9 582.76 195.9 583.01V590.49C195.9 590.89 195.42 591.09 195.14 590.81Z" fill="#EACF86"/>
<path d="M226.28 590.81L218.54 583.33C218.25 583.05 218.45 582.56 218.85 582.56H226.59C226.84 582.56 227.04 582.76 227.04 583.01V590.49C227.04 590.89 226.56 591.09 226.28 590.81Z" fill="#EACF86"/>
<path d="M257.42 590.81L249.68 583.33C249.39 583.05 249.59 582.56 249.99 582.56H257.73C257.98 582.56 258.18 582.76 258.18 583.01V590.49C258.18 590.89 257.7 591.09 257.42 590.81Z" fill="#EACF86"/>
<path d="M288.56 590.81L280.82 583.33C280.53 583.05 280.73 582.56 281.13 582.56H288.87C289.12 582.56 289.32 582.76 289.32 583.01V590.49C289.32 590.89 288.84 591.09 288.56 590.81Z" fill="#EACF86"/>
<path d="M8.30006 626.62L0.560051 619.14C0.270051 618.86 0.470056 618.37 0.870056 618.37H8.61005C8.86005 618.37 9.06005 618.57 9.06005 618.82V626.3C9.06005 626.7 8.58006 626.9 8.30006 626.62Z" fill="#EACF86"/>
<path d="M39.4402 626.62L31.7002 619.14C31.4102 618.86 31.6102 618.37 32.0102 618.37H39.7502C40.0002 618.37 40.2002 618.57 40.2002 618.82V626.3C40.2002 626.7 39.7202 626.9 39.4402 626.62Z" fill="#EACF86"/>
<path d="M70.5801 626.62L62.8401 619.14C62.5501 618.86 62.7501 618.37 63.1501 618.37H70.8901C71.1401 618.37 71.3401 618.57 71.3401 618.82V626.3C71.3401 626.7 70.8601 626.9 70.5801 626.62Z" fill="#EACF86"/>
<path d="M101.72 626.62L93.9802 619.14C93.6902 618.86 93.8902 618.37 94.2902 618.37H102.03C102.28 618.37 102.48 618.57 102.48 618.82V626.3C102.48 626.7 102 626.9 101.72 626.62Z" fill="#EACF86"/>
<path d="M132.86 626.62L125.12 619.14C124.83 618.86 125.03 618.37 125.43 618.37H133.17C133.42 618.37 133.62 618.57 133.62 618.82V626.3C133.62 626.7 133.14 626.9 132.86 626.62Z" fill="#EACF86"/>
<path d="M164 626.62L156.26 619.14C155.97 618.86 156.17 618.37 156.57 618.37H164.31C164.56 618.37 164.76 618.57 164.76 618.82V626.3C164.76 626.7 164.28 626.9 164 626.62Z" fill="#EACF86"/>
<path d="M195.14 626.62L187.4 619.14C187.11 618.86 187.31 618.37 187.71 618.37H195.45C195.7 618.37 195.9 618.57 195.9 618.82V626.3C195.9 626.7 195.42 626.9 195.14 626.62Z" fill="#EACF86"/>
<path d="M226.28 626.62L218.54 619.14C218.25 618.86 218.45 618.37 218.85 618.37H226.59C226.84 618.37 227.04 618.57 227.04 618.82V626.3C227.04 626.7 226.56 626.9 226.28 626.62Z" fill="#EACF86"/>
<path d="M257.42 626.62L249.68 619.14C249.39 618.86 249.59 618.37 249.99 618.37H257.73C257.98 618.37 258.18 618.57 258.18 618.82V626.3C258.18 626.7 257.7 626.9 257.42 626.62Z" fill="#EACF86"/>
<path d="M288.56 626.62L280.82 619.14C280.53 618.86 280.73 618.37 281.13 618.37H288.87C289.12 618.37 289.32 618.57 289.32 618.82V626.3C289.32 626.7 288.84 626.9 288.56 626.62Z" fill="#EACF86"/>
<path d="M8.30006 662.43L0.560051 654.95C0.270051 654.67 0.470056 654.18 0.870056 654.18H8.61005C8.86005 654.18 9.06005 654.38 9.06005 654.63V662.11C9.06005 662.51 8.58006 662.71 8.30006 662.43Z" fill="#EACF86"/>
<path d="M39.4402 662.43L31.7002 654.95C31.4102 654.67 31.6102 654.18 32.0102 654.18H39.7502C40.0002 654.18 40.2002 654.38 40.2002 654.63V662.11C40.2002 662.51 39.7202 662.71 39.4402 662.43Z" fill="#EACF86"/>
<path d="M70.5801 662.43L62.8401 654.95C62.5501 654.67 62.7501 654.18 63.1501 654.18H70.8901C71.1401 654.18 71.3401 654.38 71.3401 654.63V662.11C71.3401 662.51 70.8601 662.71 70.5801 662.43Z" fill="#EACF86"/>
<path d="M101.72 662.43L93.9802 654.95C93.6902 654.67 93.8902 654.18 94.2902 654.18H102.03C102.28 654.18 102.48 654.38 102.48 654.63V662.11C102.48 662.51 102 662.71 101.72 662.43Z" fill="#EACF86"/>
<path d="M132.86 662.43L125.12 654.95C124.83 654.67 125.03 654.18 125.43 654.18H133.17C133.42 654.18 133.62 654.38 133.62 654.63V662.11C133.62 662.51 133.14 662.71 132.86 662.43Z" fill="#EACF86"/>
<path d="M164 662.43L156.26 654.95C155.97 654.67 156.17 654.18 156.57 654.18H164.31C164.56 654.18 164.76 654.38 164.76 654.63V662.11C164.76 662.51 164.28 662.71 164 662.43Z" fill="#EACF86"/>
<path d="M195.14 662.43L187.4 654.95C187.11 654.67 187.31 654.18 187.71 654.18H195.45C195.7 654.18 195.9 654.38 195.9 654.63V662.11C195.9 662.51 195.42 662.71 195.14 662.43Z" fill="#EACF86"/>
<path d="M226.28 662.43L218.54 654.95C218.25 654.67 218.45 654.18 218.85 654.18H226.59C226.84 654.18 227.04 654.38 227.04 654.63V662.11C227.04 662.51 226.56 662.71 226.28 662.43Z" fill="#EACF86"/>
<path d="M257.42 662.43L249.68 654.95C249.39 654.67 249.59 654.18 249.99 654.18H257.73C257.98 654.18 258.18 654.38 258.18 654.63V662.11C258.18 662.51 257.7 662.71 257.42 662.43Z" fill="#EACF86"/>
<path d="M288.56 662.43L280.82 654.95C280.53 654.67 280.73 654.18 281.13 654.18H288.87C289.12 654.18 289.32 654.38 289.32 654.63V662.11C289.32 662.51 288.84 662.71 288.56 662.43Z" fill="#EACF86"/>
</g>
</svg>
