<svg width="136" height="80" viewBox="0 0 136 80" fill="none" xmlns="http://www.w3.org/2000/svg">
<g id="Group 3642">
<path id="Ellipse 5" d="M104.935 39.7297C104.935 53.3352 93.9029 64.3649 80.2932 64.3649C66.6835 64.3649 55.6509 53.3352 55.6509 39.7297C55.6509 26.1243 66.6835 15.0946 80.2932 15.0946C93.9029 15.0946 104.935 26.1243 104.935 39.7297Z" fill="#EACF86" stroke="#EACF86"/>
<path id="Ellipse 7" d="M135.215 40.0001C135.215 46.8886 129.629 52.473 122.738 52.473C115.847 52.473 110.261 46.8886 110.261 40.0001C110.261 33.1116 115.847 27.5271 122.738 27.5271C129.629 27.5271 135.215 33.1116 135.215 40.0001Z" fill="#EACF86" stroke="#EACF86"/>
<path id="Ellipse 6" d="M79.0228 40C79.0228 61.5388 61.557 79 40.0114 79C18.4657 79 1 61.5388 1 40C1 18.4612 18.4657 1 40.0114 1C61.557 1 79.0228 18.4612 79.0228 40Z" stroke="white" stroke-width="2"/>
</g>
</svg>
