<svg width="32" height="32" viewBox="0 0 32 32" fill="none" xmlns="http://www.w3.org/2000/svg">
<g id="brand-whatsapp" clip-path="url(#clip0_400_4184)">
<path id="Vector" d="M4 28.0003L6.2 22.9337C4.51688 20.5444 3.76356 17.623 4.08139 14.7178C4.39923 11.8126 5.76638 9.12318 7.92628 7.15435C10.0862 5.18553 12.8903 4.07261 15.8125 4.02446C18.7347 3.97631 21.574 4.99623 23.7976 6.89282C26.0212 8.78941 27.4762 11.4323 27.8896 14.3255C28.303 17.2187 27.6463 20.1633 26.0428 22.6067C24.4393 25.0501 21.9993 26.8244 19.1805 27.5965C16.3618 28.3686 13.3582 28.0855 10.7333 26.8003L4 28.0003" stroke="#081E3D" stroke-width="2" stroke-linecap="round" stroke-linejoin="round"/>
<path id="Vector_2" d="M12 13.3334C12 13.5102 12.0702 13.6798 12.1953 13.8048C12.3203 13.9298 12.4899 14 12.6667 14C12.8435 14 13.013 13.9298 13.1381 13.8048C13.2631 13.6798 13.3333 13.5102 13.3333 13.3334V12C13.3333 11.8232 13.2631 11.6537 13.1381 11.5286C13.013 11.4036 12.8435 11.3334 12.6667 11.3334C12.4899 11.3334 12.3203 11.4036 12.1953 11.5286C12.0702 11.6537 12 11.8232 12 12V13.3334ZM12 13.3334C12 15.1015 12.7024 16.7972 13.9526 18.0474C15.2029 19.2977 16.8986 20 18.6667 20H20C20.1768 20 20.3464 19.9298 20.4714 19.8048C20.5964 19.6798 20.6667 19.5102 20.6667 19.3334C20.6667 19.1566 20.5964 18.987 20.4714 18.862C20.3464 18.7369 20.1768 18.6667 20 18.6667H18.6667C18.4899 18.6667 18.3203 18.7369 18.1953 18.862C18.0702 18.987 18 19.1566 18 19.3334C18 19.5102 18.0702 19.6798 18.1953 19.8048C18.3203 19.9298 18.4899 20 18.6667 20" stroke="#081E3D" stroke-width="2" stroke-linecap="round" stroke-linejoin="round"/>
</g>
<defs>
<clipPath id="clip0_400_4184">
<rect width="32" height="32" fill="white"/>
</clipPath>
</defs>
</svg>
