<svg width="88" height="88" viewBox="0 0 88 88" fill="none" xmlns="http://www.w3.org/2000/svg">
<g filter="url(#filter0_b_678_25345)">
<circle cx="44" cy="44" r="44" fill="white" fill-opacity="0.3"/>
</g>
<circle cx="43.9995" cy="44.0005" r="33.2075" fill="#4BC259"/>
<path d="M29.0674 58.9038L31.8049 52.5993C29.7105 49.6263 28.7732 45.9912 29.1687 42.3762C29.5641 38.7612 31.2653 35.4148 33.9529 32.9649C36.6405 30.5151 40.1297 29.1303 43.7658 29.0704C47.4019 29.0105 50.9348 30.2796 53.7017 32.6395C56.4685 34.9995 58.279 38.288 58.7934 41.888C59.3078 45.4881 58.4907 49.1521 56.4954 52.1924C54.5002 55.2328 51.464 57.4405 47.9566 58.4012C44.4493 59.362 40.7118 59.0098 37.4457 57.4106L29.0674 58.9038" stroke="white" stroke-width="3" stroke-linecap="round" stroke-linejoin="round"/>
<path d="M39.0215 40.6537C39.0215 40.8737 39.1089 41.0847 39.2645 41.2402C39.42 41.3958 39.631 41.4832 39.851 41.4832C40.071 41.4832 40.282 41.3958 40.4376 41.2402C40.5932 41.0847 40.6806 40.8737 40.6806 40.6537V38.9946C40.6806 38.7746 40.5932 38.5636 40.4376 38.408C40.282 38.2524 40.071 38.165 39.851 38.165C39.631 38.165 39.42 38.2524 39.2645 38.408C39.1089 38.5636 39.0215 38.7746 39.0215 38.9946V40.6537ZM39.0215 40.6537C39.0215 42.8537 39.8955 44.9637 41.4511 46.5194C43.0068 48.0751 45.1168 48.949 47.3169 48.949H48.976C49.196 48.949 49.407 48.8616 49.5625 48.7061C49.7181 48.5505 49.8055 48.3395 49.8055 48.1195C49.8055 47.8995 49.7181 47.6885 49.5625 47.5329C49.407 47.3774 49.196 47.29 48.976 47.29H47.3169C47.0969 47.29 46.8859 47.3774 46.7303 47.5329C46.5747 47.6885 46.4873 47.8995 46.4873 48.1195C46.4873 48.3395 46.5747 48.5505 46.7303 48.7061C46.8859 48.8616 47.0969 48.949 47.3169 48.949" stroke="white" stroke-width="3" stroke-linecap="round" stroke-linejoin="round"/>
<defs>
<filter id="filter0_b_678_25345" x="-6" y="-6" width="100" height="100" filterUnits="userSpaceOnUse" color-interpolation-filters="sRGB">
<feFlood flood-opacity="0" result="BackgroundImageFix"/>
<feGaussianBlur in="BackgroundImageFix" stdDeviation="3"/>
<feComposite in2="SourceAlpha" operator="in" result="effect1_backgroundBlur_678_25345"/>
<feBlend mode="normal" in="SourceGraphic" in2="effect1_backgroundBlur_678_25345" result="shape"/>
</filter>
</defs>
</svg>
